<?xml version="1.0" encoding="utf-8"?>
<!-- Generator: Adobe Illustrator 16.0.3, SVG Export Plug-In . SVG Version: 6.00 Build 0)  -->
<!DOCTYPE svg PUBLIC "-//W3C//DTD SVG 1.1//EN" "http://www.w3.org/Graphics/SVG/1.1/DTD/svg11.dtd">
<svg version="1.1" id="Layer_1" xmlns="http://www.w3.org/2000/svg" xmlns:xlink="http://www.w3.org/1999/xlink" x="0px" y="0px"
	 width="32px" height="32px" viewBox="0 0 32 32" enable-background="new 0 0 32 32" xml:space="preserve">
<path fill="#2282ff" id="calendar_x5F_ios" d="M25.8,29.1H6.2c-1.819,0-3.3-1.48-3.3-3.299L2.914,6.2c0-1.819,1.475-3.3,3.286-3.3h19.6
	c1.819,0,3.3,1.48,3.3,3.3v19.601C29.1,27.619,27.619,29.1,25.8,29.1z M6.2,3.9c-1.261,0-2.286,1.031-2.286,2.3L3.9,25.801
	c0,1.268,1.031,2.299,2.3,2.299h19.6c1.269,0,2.3-1.031,2.3-2.299V6.2c0-1.269-1.031-2.3-2.3-2.3H6.2z M26.699,26.068H5.301V9.132
	h21.398V26.068z M6.301,25.068h19.398V10.132H6.301V25.068z M20,23.75h-8v-8h8V23.75z M13,22.75h6v-6h-6V22.75z M22.5,14.25h-13v-3
	h13V14.25z M10.5,13.25h11v-1h-11V13.25z"/>
</svg>
