<?xml version="1.0" encoding="utf-8"?>
<!-- Generator: Adobe Illustrator 16.0.3, SVG Export Plug-In . SVG Version: 6.00 Build 0)  -->
<!DOCTYPE svg PUBLIC "-//W3C//DTD SVG 1.1//EN" "http://www.w3.org/Graphics/SVG/1.1/DTD/svg11.dtd">
<svg version="1.1" id="Layer_1" xmlns="http://www.w3.org/2000/svg" xmlns:xlink="http://www.w3.org/1999/xlink" x="0px" y="0px"
	 width="32px" height="32px" viewBox="0 0 32 32" enable-background="new 0 0 32 32" xml:space="preserve">
<path id="daama" fill="#3fcdc7" d="M29.75,12.248h-2.487c-0.178-0.536-0.393-1.058-0.644-1.563l1.756-1.756c0,0,0,0,0.001,0
	c0.487-0.488,0.487-1.28-0.001-1.768l-3.536-3.537c-0.495-0.472-1.273-0.472-1.768,0l-1.759,1.758
	c-0.505-0.252-1.026-0.467-1.563-0.644V2.25C19.75,1.56,19.19,1,18.5,1h-5c-0.69,0-1.25,0.56-1.25,1.25v2.489
	c-0.536,0.176-1.059,0.391-1.564,0.643L8.929,3.625c-0.495-0.473-1.273-0.473-1.768,0L3.625,7.162c-0.488,0.488-0.488,1.279,0,1.767
	l1.758,1.759c-0.252,0.505-0.467,1.027-0.644,1.563H2.25C1.56,12.25,1,12.81,1,13.5V16h1.25v-2.5h2.949
	c0.279,0,0.523-0.184,0.601-0.452c0.216-0.757,0.517-1.488,0.896-2.179c0.135-0.244,0.092-0.547-0.105-0.744l-2.082-2.08
	l3.536-3.536l2.083,2.082c0.197,0.197,0.5,0.239,0.744,0.105c0.69-0.378,1.42-0.679,2.177-0.896C13.316,5.723,13.5,5.478,13.5,5.199
	V2.25h5v2.949c0,0.279,0.185,0.523,0.452,0.601c0.758,0.216,1.488,0.517,2.179,0.896c0.244,0.134,0.547,0.092,0.744-0.105
	l2.08-2.082l3.535,3.536l-2.082,2.082c-0.196,0.197-0.239,0.501-0.104,0.745c0.378,0.69,0.68,1.42,0.896,2.177
	c0.078,0.268,0.322,0.452,0.602,0.452h2.949V16H31v-2.502C31,12.808,30.44,12.248,29.75,12.248z M16,9.125
	c-3.451,0-6.25,2.798-6.25,6.25V16H11v-0.625c0-2.762,2.238-5,5-5s5,2.238,5,5V16h1.25v-0.625C22.25,11.923,19.451,9.125,16,9.125z
	 M15.375,3.5h1.25v1.25h-1.25V3.5z M7.25,7.25H8.5V8.5H7.25V7.25z M3.5,14.75h1.25V16H3.5V14.75z M27.25,14.75h1.25V16h-1.25V14.75z
	 M23.5,7.25h1.25V8.5H23.5V7.25z M8.5,24.75H2.25C1.56,24.75,1,25.31,1,26v3.75C1,30.44,1.56,31,2.25,31H8.5
	c0.69,0,1.25-0.56,1.25-1.25V26C9.75,25.31,9.19,24.75,8.5,24.75z M8.5,29.75H2.25V26H8.5V29.75z M29.75,24.75H23.5
	c-0.69,0-1.25,0.56-1.25,1.25v3.75c0,0.69,0.56,1.25,1.25,1.25h6.25c0.69,0,1.25-0.56,1.25-1.25V26
	C31,25.31,30.44,24.75,29.75,24.75z M29.75,29.75H23.5V26h6.25V29.75z M19.125,24.75h-6.25c-0.69,0-1.25,0.56-1.25,1.25v3.75
	c0,0.69,0.56,1.25,1.25,1.25h6.25c0.69,0,1.25-0.56,1.25-1.25V26C20.375,25.31,19.815,24.75,19.125,24.75z M19.125,29.75
	L19.125,29.75h-6.25V26h6.25V29.75z M26.625,19.75H5.375c-0.345,0-0.625,0.279-0.625,0.625V23.5H6V21h20v2.5h1.25v-3.125
	C27.25,20.029,26.971,19.75,26.625,19.75z M15.375,15.375h1.25V23.5h-1.25V15.375z M3.5,27.25h1.25v1.25H3.5V27.25z M6,27.25h1.25
	v1.25H6V27.25z M14.125,27.25h1.25v1.25h-1.25V27.25z M16.625,27.25h1.25v1.25h-1.25V27.25z M24.75,27.25H26v1.25h-1.25V27.25z
	 M27.25,27.25h1.25v1.25h-1.25V27.25z M16,12.25c-1.726,0-3.125,1.399-3.125,3.125V16h1.25v-0.625c0-1.036,0.84-1.875,1.875-1.875
	s1.875,0.839,1.875,1.875V16h1.25v-0.625C19.125,13.649,17.726,12.25,16,12.25z"/>
</svg>
