<?xml version="1.0" encoding="utf-8"?>
<!-- Generator: Adobe Illustrator 16.0.3, SVG Export Plug-In . SVG Version: 6.00 Build 0)  -->
<!DOCTYPE svg PUBLIC "-//W3C//DTD SVG 1.1//EN" "http://www.w3.org/Graphics/SVG/1.1/DTD/svg11.dtd">
<svg version="1.1" id="Layer_1" xmlns="http://www.w3.org/2000/svg" xmlns:xlink="http://www.w3.org/1999/xlink" x="0px" y="0px"
	 width="32px" height="32px" viewBox="0 0 32 32" enable-background="new 0 0 32 32" xml:space="preserve">
<path id="AITesting" fill="#ff689b" d="M25.137,13.5h1.5c0.276,0,0.501-0.224,0.501-0.5v-1.5c0-0.276-0.225-0.5-0.501-0.5
	c-0.275,0-0.5,0.224-0.5,0.5v1h-1c-0.276,0-0.5,0.224-0.5,0.5C24.637,13.276,24.86,13.5,25.137,13.5z M13.374,11.5
	c1.104,0,2-0.896,2-2c0-1.105-0.895-2-2-2c-1.105,0-2,0.895-2,2C11.374,10.604,12.269,11.5,13.374,11.5z M13.374,8.5
	c0.552,0,1,0.448,1,1s-0.447,1-1,1c-0.553,0-1-0.448-1-1S12.821,8.5,13.374,8.5z M2.452,11.334C2.664,11.443,2.898,11.5,3.137,11.5
	c0.637,0,1.203-0.404,1.41-1.006l3.932-0.061L7.793,11c-0.189,0.155-0.238,0.425-0.116,0.636l0.935,1.614l0.021,2.25H6.137
	c-0.029,0.003-0.058,0.009-0.087,0.018c-0.236-0.695-0.94-1.117-1.665-0.998C3.661,14.64,3.13,15.266,3.13,16
	c0,0.735,0.531,1.36,1.255,1.48c0.724,0.119,1.429-0.303,1.665-0.998c0.029,0.009,0.058,0.015,0.087,0.017h3
	c0.133,0,0.261-0.052,0.355-0.147c0.094-0.095,0.146-0.224,0.145-0.356l-0.023-2.534l1.6-0.601c0.109,0.071,0.22,0.135,0.331,0.193
	l0.337,2.027c0.041,0.241,0.249,0.417,0.494,0.417h0.261V18h-1.5c-0.276,0-0.5,0.223-0.5,0.498v7.295l-4.353,4.353
	c-0.143,0.144-0.186,0.358-0.108,0.545C6.252,30.878,6.435,31,6.637,31h16c0.202,0,0.385-0.122,0.462-0.31
	c0.077-0.187,0.035-0.401-0.107-0.545l-3.354-3.353v-2.655l1.118-1.863c1.889,1.14,3.03,1.726,3.381,1.726h3.001
	c0.274,0,0.499-0.224,0.499-0.5v-2.793l0.853-0.853c0.095-0.095,0.146-0.222,0.147-0.354V18h0.729c0.34,0,0.655-0.171,0.84-0.455
	c0.185-0.283,0.213-0.642,0.074-0.951l-1.553-3.5c0.589-0.703,0.911-1.591,0.909-2.509c0.011-3.309-1.86-6.337-4.825-7.807
	l-1.45-0.727c-0.221-0.109-0.486-0.042-0.63,0.157L22.522,2.5h-3.386v-1c0-0.276-0.224-0.5-0.499-0.5h-5.001
	c-0.276,0-0.5,0.224-0.5,0.5v2h-0.763c-0.245,0-0.454,0.177-0.494,0.418l-0.337,2.026c-0.112,0.058-0.223,0.122-0.331,0.193
	L9.287,5.416C9.058,5.33,8.801,5.423,8.678,5.634L8.174,6.508C8.161,6.508,8.15,6.5,8.138,6.5H5.137V4.908
	C5.826,4.665,6.239,3.96,6.115,3.24C5.991,2.52,5.367,1.994,4.637,1.994c-0.731,0-1.355,0.526-1.479,1.247s0.29,1.424,0.979,1.668V7
	c0,0.276,0.224,0.5,0.5,0.5h2.992C7.583,7.685,7.646,7.878,7.793,8l1.585,1.306c0,0.037,0,0.074-0.003,0.111L4.544,9.492
	c-0.227-0.634-0.849-1.04-1.52-0.99C2.353,8.55,1.795,9.041,1.663,9.7C1.529,10.36,1.852,11.029,2.452,11.334z M4.637,16.5
	c-0.276,0-0.5-0.224-0.5-0.5s0.224-0.5,0.5-0.5c0.276,0,0.5,0.225,0.5,0.5S4.913,16.5,4.637,16.5z M4.637,3
	c0.276,0,0.5,0.224,0.5,0.5c0,0.276-0.224,0.5-0.5,0.5c-0.276,0-0.5-0.224-0.5-0.5C4.137,3.224,4.361,3,4.637,3z M13.637,15.5h0.737
	c0.244,0,0.453-0.176,0.493-0.417l0.338-2.027c0.11-0.058,0.222-0.123,0.33-0.193l1.926,0.722c0.229,0.086,0.486-0.006,0.609-0.218
	L18.281,13h2.354c0.038-0.003,0.074-0.011,0.109-0.022l0.892,1.188V15h-1.999v1h1.153l-1.34,0.535
	c-0.189,0.076-0.314,0.261-0.314,0.466V18h-5.5V15.5z M19.069,7.366L18.859,7h1.278v2h-2.396l1.212-1
	C19.143,7.845,19.191,7.578,19.069,7.366z M20.138,10v2h-1.278l0.21-0.366c0.122-0.21,0.073-0.479-0.115-0.634l-1.212-1H20.138z
	 M16.784,22.353l1.854,1.855V24.5h-3V19h0.999v2.999C16.636,22.133,16.689,22.26,16.784,22.353z M13.614,29h0.023v-0.026
	l1.876-2.144c0.081-0.092,0.125-0.209,0.125-0.33v-1h0.999v4.499h-3.899L13.614,29z M7.844,29.999l3.646-3.646
	c0.094-0.093,0.146-0.221,0.146-0.353v-7h3v7.312l-1,1.144V25h-1v3.601l-1.227,1.398H7.844z M21.43,29.999h-3.793V25.5h1.001V27
	c0,0.132,0.052,0.26,0.146,0.354L21.43,29.999z M19.037,23.194l-1.4-1.401V19h1.5v2c0,0.173,0.089,0.332,0.235,0.425
	c0.186,0.116,0.355,0.22,0.531,0.327L19.037,23.194z M23.295,3.138l1.069,0.535c2.626,1.301,4.283,3.982,4.272,6.913
	c0.002,0.773-0.306,1.516-0.853,2.061c-0.146,0.146-0.188,0.368-0.104,0.557l1.686,3.798h-1.229c-0.276,0-0.5,0.223-0.5,0.499V19
	h-0.086c-0.773,0.001-1.516-0.306-2.061-0.854c-0.196-0.19-0.508-0.188-0.7,0.006c-0.193,0.193-0.196,0.505-0.008,0.701
	c0.594,0.595,1.362,0.979,2.194,1.1l-0.193,0.193c-0.094,0.094-0.146,0.221-0.146,0.354V23l-2.453,0.003
	c-1.154-0.534-2.271-1.151-3.337-1.845l-0.003-0.003h-0.003c-0.234-0.143-0.471-0.287-0.703-0.432v-3.385l2.185-0.874
	c0.189-0.076,0.314-0.261,0.314-0.465v-2c0-0.108-0.035-0.214-0.1-0.3l-1.4-1.866V6.16L23.295,3.138z M14.136,2h4v1
	c0,0.276,0.225,0.5,0.501,0.5h3.17L20.23,5.709C20.17,5.794,20.138,5.896,20.138,6h-1.856L18.07,5.634
	c-0.123-0.211-0.38-0.304-0.609-0.218l-1.925,0.722c-0.108-0.071-0.219-0.135-0.33-0.193l-0.34-2.027
	C14.826,3.677,14.618,3.5,14.374,3.5h-0.237V2z M8.755,7.5l0.576-1l1.776,0.666c0.159,0.06,0.338,0.035,0.474-0.068
	c0.188-0.141,0.393-0.261,0.609-0.354c0.156-0.067,0.268-0.21,0.296-0.378L12.797,4.5h1.153l0.311,1.866
	c0.028,0.168,0.139,0.311,0.296,0.378c0.216,0.094,0.42,0.213,0.608,0.355c0.136,0.102,0.315,0.127,0.474,0.067L17.416,6.5l0.575,1
	l-1.462,1.204c-0.131,0.108-0.199,0.276-0.179,0.445c0.031,0.234,0.031,0.47,0,0.703c-0.021,0.169,0.047,0.337,0.179,0.446
	l1.462,1.202l-0.575,1l-1.777-0.665c-0.159-0.06-0.337-0.035-0.474,0.067c-0.188,0.142-0.393,0.261-0.608,0.355
	c-0.157,0.067-0.268,0.209-0.296,0.377L13.95,14.5h-1.154l-0.31-1.866c-0.028-0.168-0.14-0.311-0.296-0.378
	c-0.216-0.093-0.42-0.213-0.608-0.354c-0.137-0.102-0.315-0.127-0.475-0.068L9.331,12.5l-0.576-1l1.462-1.203
	c0.009-0.009,0.018-0.019,0.026-0.028c0.01-0.009,0.019-0.019,0.027-0.029c0.038-0.041,0.068-0.087,0.09-0.138l0.003-0.006
	c0.021-0.054,0.032-0.113,0.032-0.172c0.001-0.007,0.003-0.014,0.004-0.022c0-0.006-0.003-0.011-0.004-0.017
	c0-0.006,0-0.023,0-0.034c-0.031-0.234-0.031-0.47,0-0.703c0.02-0.169-0.047-0.337-0.179-0.446L8.755,7.5z M2.692,9.771
	c0.06-0.119,0.165-0.209,0.292-0.25c0.256-0.065,0.519,0.08,0.6,0.331c0.081,0.251-0.047,0.522-0.293,0.619
	c-0.263,0.084-0.544-0.06-0.629-0.323C2.622,10.024,2.632,9.888,2.692,9.771z M12.637,21h1v0.999h-1V21z M12.637,23h1v1h-1V23z
	 M15.637,15h0.999v1h-0.999V15z M17.637,15h1.001v1h-1.001V15z M22.137,6h1v2h-1V6z M22.137,9h1v1h-1V9z M22.137,11h1v1h-1V11z"/>
</svg>
