<?xml version="1.0" encoding="utf-8"?>
<!-- Generator: Adobe Illustrator 16.0.3, SVG Export Plug-In . SVG Version: 6.00 Build 0)  -->
<!DOCTYPE svg PUBLIC "-//W3C//DTD SVG 1.1//EN" "http://www.w3.org/Graphics/SVG/1.1/DTD/svg11.dtd">
<svg version="1.1" id="Layer_1" xmlns="http://www.w3.org/2000/svg" xmlns:xlink="http://www.w3.org/1999/xlink" x="0px" y="0px"
	 width="32px" height="32px" viewBox="0 0 32 32" enable-background="new 0 0 32 32" xml:space="preserve">
<path id="Lumos" fill="#e98e06" d="M11.534,19.561l1.76-5.258l-4.586-3.068h5.651L16,5.739l1.641,5.495h5.652l-4.586,3.068l1.758,5.258L16,16.298
	L11.534,19.561z M16,15.182l2.714,1.982l-1.081-3.228l2.692-1.801H16.97L16,8.889l-0.969,3.247h-3.355l2.691,1.801l-1.08,3.227
	L16,15.182z M13.951,16.354l0.808-2.411l-2.106-1.409h2.594L16,10.011l0.753,2.522h2.595l-2.106,1.409l0.806,2.411L16,14.856
	L13.951,16.354z M16,14.298l1.173,0.857l-0.467-1.396l1.158-0.775h-1.446L16,11.585l-0.418,1.399h-1.445l1.159,0.775l-0.468,1.396
	L16,14.298z M9.925,25.843L6.542,23.37l-3.384,2.473l1.332-3.979L1,19.529h4.295l1.247-4.179l1.248,4.179h4.294l-3.49,2.334
	L9.925,25.843z M3.967,20.43l1.595,1.068L4.91,23.447l1.632-1.192l1.631,1.191l-0.652-1.948l1.595-1.068H7.118L6.542,18.5
	l-0.576,1.93H3.967z M7.712,22.886l-1.17-0.854l-1.17,0.854l0.459-1.371l-1.216-0.814h1.493l0.435-1.454l0.434,1.454h1.492
	l-1.215,0.814L7.712,22.886z M6.098,21.151l0.27,0.181l-0.12,0.357l0.294-0.215l0.294,0.215l-0.12-0.357l0.27-0.181H6.64
	l-0.098-0.329l-0.099,0.329H6.098z M28.842,25.843l-3.383-2.473l-3.384,2.473l1.331-3.979l-3.489-2.334h4.295l1.247-4.179
	l1.248,4.179H31l-3.489,2.334L28.842,25.843z M22.884,20.43l1.596,1.068l-0.653,1.949l1.633-1.192l1.632,1.192l-0.651-1.949
	l1.595-1.068h-1.999l-0.576-1.93l-0.575,1.93H22.884z M26.628,22.887l-1.169-0.855l-1.17,0.855l0.459-1.373l-1.217-0.813h1.493
	l0.435-1.454l0.434,1.454h1.493l-1.216,0.813L26.628,22.887z M25.017,21.151l0.269,0.18l-0.12,0.357l0.294-0.215l0.294,0.215
	l-0.12-0.357l0.269-0.18h-0.345l-0.098-0.329l-0.099,0.329H25.017z"/>
</svg>
