<?xml version="1.0" encoding="utf-8"?>
<!-- Generator: Adobe Illustrator 16.0.3, SVG Export Plug-In . SVG Version: 6.00 Build 0)  -->
<!DOCTYPE svg PUBLIC "-//W3C//DTD SVG 1.1//EN" "http://www.w3.org/Graphics/SVG/1.1/DTD/svg11.dtd">
<svg version="1.1" id="Layer_1" xmlns="http://www.w3.org/2000/svg" xmlns:xlink="http://www.w3.org/1999/xlink" x="0px" y="0px"
	 width="32px" height="32px" viewBox="0 0 32 32" enable-background="new 0 0 32 32" xml:space="preserve">
<path fill="#e98e06" id="calendar_x5F_material" d="M25.8,30.5H6.2c-1.819,0-3.3-1.48-3.3-3.3L2.914,7.6c0-1.819,1.475-3.3,3.286-3.3h0.9V1.5h3.8
	v2.8H21.1V1.5H24.9v2.8H25.8c1.819,0,3.3,1.48,3.3,3.3v19.6C29.1,29.02,27.619,30.5,25.8,30.5z M6.2,5.3
	c-1.261,0-2.286,1.032-2.286,2.3L3.9,27.2c0,1.269,1.031,2.3,2.3,2.3h19.6c1.269,0,2.3-1.031,2.3-2.3V7.6c0-1.269-1.031-2.3-2.3-2.3
	H23.9V2.5H22.1v2.8H9.9V2.5h-1.8v2.8H6.2z M26.82,27.469H5.421V10.531H26.82V27.469z M6.421,26.469H25.82V11.531H6.421V26.469z
	 M16.5,21.1h-8v-8h8V21.1z M9.5,20.1h6v-6h-6V20.1z"/>
</svg>
