<?xml version="1.0" encoding="utf-8"?>
<!-- Generator: Adobe Illustrator 16.0.3, SVG Export Plug-In . SVG Version: 6.00 Build 0)  -->
<!DOCTYPE svg PUBLIC "-//W3C//DTD SVG 1.1//EN" "http://www.w3.org/Graphics/SVG/1.1/DTD/svg11.dtd">
<svg version="1.1" id="Layer_1" xmlns="http://www.w3.org/2000/svg" xmlns:xlink="http://www.w3.org/1999/xlink" x="0px" y="0px"
	 width="32px" height="32px" viewBox="0 0 32 32" enable-background="new 0 0 32 32" xml:space="preserve">
<g id="PodJS">
	<path fill="#41cf2e" d="M19.514,29.461l-5.464-5.464l1.1-1.101h2.825v-5.089l0.368-0.088c1.709-0.406,2.902-1.918,2.902-3.674
		c0-1.757-1.193-3.268-2.902-3.675l-0.368-0.087V8.029l1.539-1.54l3.589,3.589l0.239-0.238c1.15-1.15,3.156-1.15,4.308,0
		c0.574,0.574,0.891,1.339,0.891,2.154c0,0.814-0.316,1.579-0.891,2.154l-0.238,0.238L31,17.975l-3.589,3.589l0.158,0.158
		c0.575,0.575,0.893,1.34,0.893,2.154c0,0.815-0.317,1.58-0.893,2.155c-1.149,1.149-3.159,1.148-4.308,0l-0.159-0.16L19.514,29.461z
		 M15.409,23.997l4.105,4.104l3.589-3.589l0.839,0.84c0.785,0.783,2.162,0.785,2.948,0c0.394-0.394,0.61-0.918,0.61-1.476
		c-0.001-0.558-0.217-1.081-0.61-1.475l-0.838-0.838l3.589-3.589l-3.589-3.589l0.918-0.918c0.394-0.393,0.609-0.917,0.609-1.474
		s-0.216-1.082-0.609-1.475c-0.786-0.787-2.161-0.788-2.948,0l-0.919,0.918l-3.589-3.589l-0.578,0.578v1.111
		c1.944,0.629,3.271,2.432,3.271,4.506s-1.326,3.876-3.271,4.506v5.307h-3.388L15.409,23.997z"/>
	<path fill="#41cf2e" d="M17.244,22.167h-6.037v-1.299c0-1.149-0.936-2.085-2.085-2.085c-1.15,0-2.085,0.936-2.085,2.085v1.299H1
		v-6.038h1.186c0.99,0,1.849-0.704,2.044-1.673l0.08-0.185c0.033-0.047,0.073-0.124,0.073-0.227c0-0.103-0.04-0.181-0.073-0.228
		l-0.08-0.184c-0.195-0.97-1.055-1.673-2.044-1.673H1V5.922h5.076V5.585c0-1.679,1.366-3.046,3.046-3.046
		c1.68,0,3.046,1.367,3.046,3.046v0.337h5.076v5.076h0.225c1.679,0,3.046,1.366,3.046,3.046c0,1.68-1.367,3.046-3.046,3.046h-0.225
		V22.167z M12.168,21.205h4.114v-5.075h1.186c1.149,0,2.085-0.936,2.085-2.085c0-1.15-0.936-2.085-2.085-2.085h-1.186V6.883h-5.076
		V5.585c0-1.149-0.936-2.085-2.085-2.085c-1.15,0-2.085,0.936-2.085,2.085v1.298H1.961v4.115h0.224c1.414,0,2.646,0.983,2.966,2.351
		c0.126,0.21,0.193,0.449,0.193,0.696S5.278,14.53,5.152,14.74c-0.321,1.368-1.553,2.351-2.966,2.351H1.961v4.114h4.114v-0.337
		c0-1.68,1.366-3.046,3.046-3.046c1.68,0,3.046,1.367,3.046,3.046V21.205z"/>
	<path fill="#41cf2eee" d="M7.879,14.343l-0.807,2.443H6.035l3.229-8.731l0,0l3.274,8.731h-1.072l-0.831-2.443H7.879z M10.427,13.559L9.263,9.903l0,0
		c-0.114,0.462-1.176,3.656-1.176,3.656H10.427z"/>
</g>
</svg>
