<?xml version="1.0" encoding="utf-8"?>
<!-- Generator: Adobe Illustrator 16.0.3, SVG Export Plug-In . SVG Version: 6.00 Build 0)  -->
<!DOCTYPE svg PUBLIC "-//W3C//DTD SVG 1.1//EN" "http://www.w3.org/Graphics/SVG/1.1/DTD/svg11.dtd">
<svg version="1.1" id="Layer_1" xmlns="http://www.w3.org/2000/svg" xmlns:xlink="http://www.w3.org/1999/xlink" x="0px" y="0px"
	 width="32px" height="32px" viewBox="0 0 32 32" enable-background="new 0 0 32 32" xml:space="preserve">
<g id="NyQL">
	<g>
		<g>
			<path fill="#8660fe" d="M16,1C7.729,1,1,7.729,1,16c0,8.271,6.729,15,15,15c8.271,0,15-6.729,15-15C31,7.729,24.271,1,16,1z
				 M16,29.75C8.418,29.75,2.25,23.582,2.25,16S8.418,2.25,16,2.25S29.75,8.418,29.75,16S23.582,29.75,16,29.75z"/>
			<path fill="#8660fe" d="M26.625,13.188h-1.69c-0.166-0.528-0.376-1.035-0.628-1.517l1.198-1.197
				c0.235-0.236,0.365-0.549,0.365-0.882c0-0.333-0.13-0.647-0.365-0.883l-2.213-2.212c-0.235-0.236-0.55-0.366-0.883-0.366
				c-0.334,0-0.646,0.129-0.883,0.366l-1.197,1.197c-0.481-0.252-0.989-0.462-1.517-0.626V5.375c0-0.689-0.561-1.25-1.25-1.25
				h-3.125c-0.689,0-1.25,0.561-1.25,1.25v1.691c-0.527,0.165-1.035,0.375-1.517,0.626l-1.197-1.197
				C10.237,6.259,9.924,6.13,9.591,6.13c-0.333,0-0.647,0.13-0.883,0.366L6.496,8.708C6.259,8.944,6.13,9.257,6.13,9.591
				c0,0.333,0.129,0.646,0.366,0.882l1.197,1.198c-0.252,0.482-0.462,0.989-0.626,1.517H5.375c-0.689,0-1.25,0.561-1.25,1.25v3.125
				c0,0.689,0.561,1.25,1.25,1.25h1.691c0.165,0.527,0.375,1.035,0.626,1.517l-1.197,1.198c-0.236,0.236-0.366,0.549-0.366,0.882
				s0.13,0.647,0.366,0.883l2.212,2.213c0.236,0.235,0.549,0.365,0.883,0.365c0.333,0,0.646-0.13,0.882-0.365l1.198-1.198
				c0.481,0.252,0.989,0.463,1.517,0.627v1.691c0,0.689,0.561,1.25,1.25,1.25h3.125c0.689,0,1.25-0.561,1.25-1.25v-1.691
				c0.527-0.164,1.035-0.375,1.518-0.627l1.197,1.198c0.235,0.235,0.549,0.365,0.882,0.365s0.647-0.13,0.883-0.365l2.213-2.213
				c0.235-0.235,0.365-0.55,0.365-0.883s-0.13-0.646-0.365-0.882l-1.198-1.198c0.252-0.481,0.462-0.989,0.628-1.517h1.69
				c0.689,0,1.25-0.561,1.25-1.25v-3.125C27.875,13.749,27.314,13.188,26.625,13.188z M26.625,17.563h-2.162
				c-0.285,0-0.534,0.192-0.605,0.469c-0.191,0.744-0.482,1.446-0.864,2.087c-0.145,0.246-0.105,0.56,0.096,0.761l1.531,1.529
				l-2.21,2.212l-1.531-1.53c-0.201-0.203-0.515-0.242-0.761-0.096c-0.641,0.381-1.344,0.672-2.087,0.863
				c-0.276,0.07-0.469,0.32-0.469,0.605v2.162h-3.125v-2.162c0-0.285-0.192-0.535-0.469-0.605c-0.743-0.191-1.446-0.482-2.087-0.863
				c-0.099-0.059-0.209-0.088-0.319-0.088c-0.162,0-0.321,0.063-0.442,0.184l-1.529,1.53L7.38,22.41l1.531-1.53
				c0.202-0.202,0.242-0.516,0.095-0.762c-0.381-0.641-0.671-1.343-0.863-2.087c-0.072-0.276-0.32-0.469-0.605-0.469H5.375v-3.125
				h2.163c0.285,0,0.534-0.193,0.605-0.469c0.192-0.744,0.482-1.446,0.863-2.087c0.146-0.246,0.107-0.559-0.095-0.761L7.379,9.592
				l2.21-2.212l1.531,1.531c0.203,0.203,0.516,0.242,0.762,0.095c0.641-0.381,1.344-0.671,2.087-0.863
				c0.276-0.072,0.469-0.32,0.469-0.605V5.375h3.125v2.163c0,0.285,0.192,0.534,0.469,0.605c0.743,0.192,1.446,0.482,2.087,0.863
				c0.246,0.146,0.559,0.106,0.761-0.095l1.528-1.531l2.213,2.21l-1.531,1.531c-0.201,0.203-0.241,0.516-0.096,0.762
				c0.382,0.641,0.672,1.343,0.864,2.086c0.071,0.276,0.32,0.469,0.605,0.469h2.162V17.563z"/>
			<path fill="#8660fe" d="M21.724,19.28l-2.5-2.188l-0.822,0.94l1.248,1.092H16c-1.723,0-3.125-1.402-3.125-3.125h-1.25
				c0,2.412,1.963,4.375,4.375,4.375h3.649l-1.248,1.092l0.822,0.941l2.5-2.188c0.136-0.119,0.214-0.29,0.214-0.47
				S21.859,19.398,21.724,19.28z"/>
			<path fill="#8660fe" d="M13.599,13.967l-1.248-1.092H16c1.723,0,3.125,1.402,3.125,3.125h1.25c0-2.413-1.963-4.375-4.375-4.375
				h-3.649l1.248-1.092l-0.822-0.941l-2.5,2.188c-0.136,0.119-0.213,0.291-0.213,0.471s0.078,0.352,0.213,0.47l2.5,2.188
				L13.599,13.967z"/>
		</g>
	</g>
</g>
</svg>
