<?xml version="1.0" encoding="utf-8"?>
<!-- Generator: Adobe Illustrator 16.0.3, SVG Export Plug-In . SVG Version: 6.00 Build 0)  -->
<!DOCTYPE svg PUBLIC "-//W3C//DTD SVG 1.1//EN" "http://www.w3.org/Graphics/SVG/1.1/DTD/svg11.dtd">
<svg version="1.1" id="Layer_1" xmlns="http://www.w3.org/2000/svg" xmlns:xlink="http://www.w3.org/1999/xlink" x="0px" y="0px"
	 width="32px" height="32px" viewBox="0 0 32 32" enable-background="new 0 0 32 32" xml:space="preserve">
<g id="MetatronJS">
	<path fill="#3fcdc7" d="M16,31C7.714,31,1,24.285,1,16C1,7.714,7.714,1,16,1c8.285,0,15,6.714,15,15C31,24.285,24.285,31,16,31z M16,1.953
		C8.238,1.953,1.952,8.238,1.952,16c0,7.763,6.286,14.047,14.048,14.047c7.763,0,14.047-6.284,14.047-14.047
		C30.047,8.238,23.763,1.953,16,1.953z"/>
	<path fill="#3fcdc7" d="M9.905,19.952c-0.143,0-0.238-0.047-0.333-0.142c-0.143-0.144-0.19-0.382-0.095-0.572l6.096-10.381
		c0.095-0.19,0.333,0.048,0.523,0.095C16.286,9,16.428,8.905,16.428,9.095v6.857c0,0.19-0.095,0.333-0.238,0.428l-6.095,3.524
		C10.095,19.905,10,19.952,9.905,19.952z M15.524,10.857l-4.287,7.286l4.287-2.477V10.857z"/>
	<path fill="#3fcdc7" d="M22.095,19.952c-0.095,0-0.142,0-0.237-0.047l-6.096-3.524c-0.142-0.095-0.237-0.238-0.237-0.428v-6.81
		c0-0.238,0.142-0.238,0.333-0.286c0.19-0.047,0.429-0.143,0.524,0.048l6.095,10.333c0.096,0.19,0.096,0.429-0.095,0.572
		C22.334,19.905,22.19,19.952,22.095,19.952z M16.476,15.667l4.286,2.477l-4.286-7.286V15.667z"/>
	<path fill="#3fcdc7" d="M22.095,19.952L22.095,19.952H9.905c-0.238,0-0.381-0.142-0.477-0.333c-0.095-0.19,0.048-0.428,0.239-0.523l6.094-3.572
		c0.144-0.095,0.333-0.095,0.478,0L22.285,19c0.19,0.047,0.286,0.238,0.286,0.428C22.571,19.714,22.334,19.952,22.095,19.952z
		 M11.714,19h8.572L16,16.524L11.714,19z"/>
	<path fill="#3fcdc7" d="M16,30.857c-0.19,0-0.333-0.096-0.428-0.238L3.143,9.381c-0.096-0.143-0.096-0.333,0-0.476
		c0.095-0.143,0.238-0.238,0.429-0.238h24.952c0.19,0,0.334,0.095,0.429,0.238c0.096,0.143,0.096,0.333,0,0.476L16.428,30.619
		C16.333,30.762,16.19,30.857,16,30.857z M4.381,9.619L16,29.429l11.619-19.81H4.381L4.381,9.619z"/>
	<path fill="#3fcdc7ee" d="M3.619,23.143c-0.095,0-0.143-0.047-0.191-0.095c-0.047-0.096-0.047-0.238,0.096-0.333l0.381-0.239
		c-0.048,0-0.048,0-0.048-0.047c-0.095-0.048-0.143-0.19-0.095-0.334l0.476-0.809c0.048-0.096,0.19-0.143,0.333-0.096
		c0.096,0.048,0.143,0.19,0.096,0.333l-0.429,0.761l0.143-0.095c0.047-0.048,0.19,0,0.286,0.144
		c0.047,0.095,0.047,0.237-0.096,0.333l-0.81,0.476C3.714,23.143,3.667,23.143,3.619,23.143z M5.286,22.19
		c-0.096,0-0.143-0.048-0.19-0.096C5.048,22,5.048,21.857,5.19,21.762L6,21.286c0.096-0.047,0.238-0.047,0.333,0.095
		c0.047,0.095,0.047,0.239-0.096,0.333L5.429,22.19C5.381,22.19,5.334,22.19,5.286,22.19z M6.905,21.239
		c-0.095,0-0.143-0.048-0.19-0.096c-0.048-0.096-0.048-0.238,0.096-0.333l0.809-0.477c0.095-0.047,0.238-0.047,0.333,0.096
		C8,20.524,8,20.667,7.857,20.761l-0.81,0.478C7,21.239,6.952,21.239,6.905,21.239z M4.905,20.857c-0.048,0-0.096,0-0.143-0.047
		c-0.095-0.048-0.142-0.19-0.095-0.333l0.476-0.81c0.047-0.095,0.191-0.143,0.333-0.095c0.095,0.047,0.143,0.19,0.095,0.333
		l-0.476,0.809C5.095,20.81,5,20.857,4.905,20.857z M8.572,20.286c-0.096,0-0.144-0.047-0.191-0.095
		c-0.047-0.096-0.047-0.239,0.095-0.333l0.81-0.477c0.095-0.048,0.237-0.048,0.333,0.096c0.047,0.095,0.047,0.238-0.096,0.333
		l-0.809,0.476C8.667,20.286,8.619,20.286,8.572,20.286z M10.238,19.333c-0.095,0-0.143-0.047-0.19-0.095
		C10,19.143,10,19,10.143,18.905l0.81-0.476c0.096-0.047,0.238-0.047,0.333,0.095c0.048,0.095,0.048,0.238-0.095,0.333l-0.809,0.476
		C10.286,19.333,10.286,19.333,10.238,19.333z M5.904,19.19c-0.047,0-0.095,0-0.142-0.047c-0.096-0.047-0.143-0.191-0.096-0.333
		L6.143,18c0.047-0.096,0.19-0.143,0.333-0.096c0.095,0.048,0.142,0.191,0.095,0.333l-0.476,0.81
		C6.048,19.143,5.952,19.19,5.904,19.19z M11.857,18.381c-0.096,0-0.143-0.048-0.191-0.096c-0.047-0.095-0.047-0.238,0.096-0.333
		l0.81-0.477c0.095-0.047,0.238-0.047,0.333,0.096c0.048,0.095,0.048,0.238-0.095,0.333L12,18.381
		C11.952,18.381,11.905,18.381,11.857,18.381z M6.857,17.572c-0.047,0-0.095,0-0.143-0.048c-0.096-0.047-0.143-0.19-0.096-0.333
		l0.477-0.809c0.048-0.095,0.19-0.143,0.333-0.095c0.143,0.048,0.143,0.19,0.095,0.334l-0.476,0.809
		C7,17.523,6.952,17.572,6.857,17.572z M13.524,17.429c-0.096,0-0.143-0.047-0.19-0.095c-0.048-0.095-0.048-0.238,0.095-0.333
		l0.81-0.477c0.095-0.048,0.239-0.048,0.333,0.096c0.047,0.095,0.047,0.238-0.095,0.333l-0.81,0.476
		C13.619,17.429,13.572,17.429,13.524,17.429z M15.191,16.476c-0.096,0-0.144-0.047-0.191-0.095
		c-0.047-0.095-0.047-0.238,0.096-0.333l0.81-0.476c0.095-0.047,0.238-0.047,0.333,0.095c0.047,0.095,0.047,0.238-0.096,0.333
		l-0.81,0.476C15.238,16.476,15.238,16.476,15.191,16.476z M7.81,15.905c-0.047,0-0.096,0-0.143-0.048
		c-0.095-0.047-0.143-0.19-0.095-0.333l0.476-0.81c0.048-0.096,0.191-0.143,0.333-0.096c0.095,0.048,0.143,0.191,0.095,0.333
		L8,15.762C8,15.857,7.905,15.905,7.81,15.905z M16,15.381c-0.143,0-0.239-0.095-0.239-0.238V14.19c0-0.143,0.096-0.238,0.239-0.238
		s0.239,0.095,0.239,0.238v0.952C16.239,15.286,16.143,15.381,16,15.381z M8.762,14.286c-0.047,0-0.095,0-0.143-0.048
		c-0.095-0.047-0.143-0.19-0.095-0.333L9,13.095C9.047,13,9.19,12.953,9.333,13c0.095,0.048,0.143,0.19,0.095,0.333l-0.476,0.809
		C8.953,14.238,8.857,14.286,8.762,14.286z M16,13.476c-0.143,0-0.239-0.095-0.239-0.238v-0.953c0-0.143,0.096-0.238,0.239-0.238
		s0.239,0.095,0.239,0.238v0.953C16.239,13.381,16.143,13.476,16,13.476z M9.762,12.619c-0.047,0-0.095,0-0.142-0.047
		c-0.096-0.048-0.144-0.191-0.096-0.333L10,11.429c0.047-0.095,0.237-0.143,0.333-0.095c0.095,0.047,0.142,0.19,0.095,0.333
		l-0.477,0.81C9.905,12.572,9.809,12.619,9.762,12.619z M16,11.571c-0.143,0-0.239-0.095-0.239-0.238v-0.953
		c0-0.143,0.096-0.238,0.239-0.238s0.239,0.096,0.239,0.238v0.953C16.239,11.476,16.143,11.571,16,11.571z M10.715,11
		c-0.048,0-0.096,0-0.144-0.048c-0.095-0.047-0.142-0.19-0.095-0.333l0.476-0.81C11,9.714,11.143,9.667,11.285,9.714
		c0.096,0.047,0.144,0.19,0.096,0.333l-0.477,0.81C10.857,10.952,10.81,11,10.715,11z M16,9.667c-0.143,0-0.239-0.095-0.239-0.238
		V8.476c0-0.143,0.096-0.238,0.239-0.238s0.239,0.095,0.239,0.238v0.952C16.239,9.571,16.143,9.667,16,9.667z M11.666,9.333
		c-0.047,0-0.095,0-0.142-0.047c-0.095-0.048-0.143-0.19-0.095-0.333l0.476-0.809c0.047-0.095,0.19-0.143,0.333-0.095
		c0.095,0.047,0.142,0.19,0.095,0.333l-0.476,0.81C11.857,9.286,11.762,9.333,11.666,9.333z M16,7.762
		c-0.143,0-0.239-0.095-0.239-0.238V6.571c0-0.143,0.096-0.238,0.239-0.238s0.239,0.095,0.239,0.238v0.953
		C16.239,7.667,16.143,7.762,16,7.762z M12.667,7.714c-0.047,0-0.095,0-0.143-0.047c-0.095-0.048-0.143-0.19-0.095-0.333l0.476-0.81
		c0.048-0.095,0.19-0.143,0.333-0.095c0.095,0.047,0.143,0.19,0.095,0.333l-0.476,0.81C12.81,7.667,12.714,7.714,12.667,7.714z
		 M13.619,6.048c-0.047,0-0.095,0-0.143-0.048c-0.095-0.048-0.143-0.19-0.095-0.333l0.476-0.81c0.048-0.095,0.239-0.143,0.333-0.095
		c0.095,0.048,0.143,0.19,0.095,0.333l-0.476,0.81C13.762,6,13.714,6.048,13.619,6.048z M16,5.857c-0.143,0-0.239-0.095-0.239-0.238
		V4.667c0-0.143,0.096-0.238,0.239-0.238s0.239,0.095,0.239,0.238v0.953C16.239,5.762,16.143,5.857,16,5.857z M14.571,4.428
		c-0.047,0-0.095,0-0.143-0.047c-0.095-0.048-0.143-0.19-0.095-0.333l0.477-0.809c0.095-0.095,0.237-0.143,0.381-0.095
		c0.095,0.047,0.142,0.19,0.095,0.333l-0.476,0.81C14.714,4.381,14.667,4.428,14.571,4.428z M16,3.952
		c-0.143,0-0.239-0.095-0.239-0.238V2.762c0-0.143,0.096-0.238,0.239-0.238s0.239,0.095,0.239,0.238v0.952
		C16.239,3.857,16.143,3.952,16,3.952z M15.524,2.762c-0.048,0-0.096,0-0.144-0.048c-0.095-0.047-0.142-0.19-0.095-0.333
		l0.476-0.762c0.048-0.095,0.144-0.143,0.286-0.095c0.096,0.047,0.191,0.143,0.191,0.238V1.81c0,0.095-0.048,0.143-0.096,0.19
		l-0.382,0.667C15.714,2.714,15.619,2.762,15.524,2.762z"/>
	<path fill="#3fcdc7ee" d="M28.382,23.143c-0.049,0-0.096,0-0.096-0.047l-0.811-0.477c-0.095-0.048-0.142-0.19-0.095-0.334
		c0.048-0.095,0.19-0.143,0.334-0.095l0.142,0.095l-0.428-0.761c-0.048-0.096-0.048-0.238,0.095-0.333
		c0.096-0.047,0.238-0.047,0.333,0.096l0.477,0.809c0.049,0.096,0.049,0.239-0.096,0.334c0,0-0.047,0-0.047,0.047l0.381,0.239
		c0.096,0.047,0.143,0.189,0.096,0.333C28.523,23.096,28.477,23.143,28.382,23.143z M26.714,22.19c-0.047,0-0.095,0-0.095-0.048
		l-0.81-0.476c-0.096-0.047-0.143-0.191-0.096-0.333c0.048-0.095,0.191-0.143,0.334-0.095l0.81,0.476
		c0.096,0.047,0.143,0.19,0.096,0.333C26.904,22.143,26.81,22.19,26.714,22.19z M25.096,21.239c-0.049,0-0.096,0-0.096-0.048
		l-0.81-0.477c-0.095-0.047-0.143-0.189-0.095-0.333c0.048-0.095,0.189-0.142,0.333-0.095l0.81,0.476
		c0.095,0.048,0.143,0.191,0.095,0.333C25.238,21.19,25.143,21.239,25.096,21.239z M27.095,20.857c-0.095,0-0.142-0.047-0.19-0.096
		l-0.476-0.809c-0.048-0.095-0.048-0.238,0.095-0.333c0.096-0.047,0.238-0.047,0.334,0.096l0.477,0.81
		c0.047,0.095,0.047,0.237-0.096,0.333C27.143,20.81,27.095,20.857,27.095,20.857z M23.429,20.286c-0.047,0-0.096,0-0.096-0.047
		l-0.81-0.477c-0.095-0.047-0.143-0.19-0.095-0.333c0.047-0.095,0.19-0.143,0.333-0.095l0.81,0.477
		c0.096,0.047,0.143,0.189,0.096,0.333C23.571,20.238,23.523,20.286,23.429,20.286z M21.762,19.333c-0.048,0-0.095,0-0.095-0.047
		l-0.81-0.476c-0.096-0.047-0.144-0.191-0.096-0.333c0.048-0.095,0.19-0.143,0.333-0.095l0.81,0.476
		C22,18.905,22.048,19.047,22,19.19C21.953,19.286,21.857,19.333,21.762,19.333z M26.095,19.19c-0.095,0-0.143-0.047-0.189-0.095
		l-0.477-0.81c-0.048-0.095-0.048-0.238,0.096-0.333c0.095-0.048,0.237-0.048,0.333,0.095l0.476,0.809
		c0.048,0.095,0.048,0.239-0.095,0.333C26.19,19.19,26.143,19.19,26.095,19.19z M20.143,18.381c-0.047,0-0.096,0-0.096-0.048
		l-0.809-0.477c-0.095-0.047-0.143-0.19-0.095-0.333c0.047-0.095,0.189-0.142,0.333-0.095l0.81,0.476
		c0.095,0.048,0.143,0.191,0.095,0.333C20.286,18.333,20.19,18.381,20.143,18.381z M25.143,17.572c-0.096,0-0.143-0.048-0.19-0.096
		l-0.476-0.809c-0.048-0.096-0.048-0.239,0.095-0.333c0.095-0.048,0.238-0.048,0.334,0.095l0.476,0.81
		c0.048,0.095,0.048,0.238-0.095,0.333C25.238,17.523,25.19,17.572,25.143,17.572z M18.477,17.429c-0.048,0-0.095,0-0.095-0.047
		l-0.811-0.477c-0.096-0.047-0.143-0.19-0.096-0.333c0.048-0.096,0.191-0.143,0.334-0.096l0.809,0.477
		c0.096,0.048,0.145,0.19,0.096,0.333C18.618,17.381,18.571,17.429,18.477,17.429z M16.809,16.476c-0.047,0-0.095,0-0.095-0.047
		l-0.809-0.476c-0.096-0.048-0.144-0.191-0.096-0.333c0.047-0.095,0.19-0.143,0.333-0.095L16.953,16
		c0.095,0.048,0.142,0.19,0.095,0.333C17,16.428,16.905,16.476,16.809,16.476z M24.19,15.905c-0.095,0-0.143-0.048-0.19-0.095
		L23.523,15c-0.047-0.095-0.047-0.238,0.095-0.333c0.096-0.048,0.239-0.048,0.334,0.095l0.477,0.81
		c0.048,0.095,0.048,0.238-0.096,0.333C24.285,15.905,24.238,15.905,24.19,15.905z M16,15.381c-0.143,0-0.239-0.095-0.239-0.238
		V14.19c0-0.143,0.096-0.238,0.239-0.238s0.239,0.095,0.239,0.238v0.952C16.239,15.286,16.143,15.381,16,15.381z M23.237,14.286
		c-0.095,0-0.142-0.048-0.189-0.095l-0.477-0.81c-0.048-0.095-0.048-0.238,0.096-0.333C22.762,13,22.904,13,23,13.143l0.477,0.809
		c0.047,0.095,0.047,0.238-0.095,0.333C23.286,14.238,23.237,14.286,23.237,14.286z M16,13.476c-0.143,0-0.239-0.095-0.239-0.238
		v-0.953c0-0.143,0.096-0.238,0.239-0.238s0.239,0.095,0.239,0.238v0.953C16.239,13.381,16.143,13.476,16,13.476z M22.238,12.619
		c-0.096,0-0.144-0.047-0.19-0.095l-0.477-0.81c-0.048-0.095-0.048-0.238,0.096-0.333c0.095-0.047,0.237-0.047,0.333,0.095
		l0.476,0.81c0.048,0.095,0.048,0.238-0.095,0.333C22.334,12.619,22.285,12.619,22.238,12.619z M16,11.571
		c-0.143,0-0.239-0.095-0.239-0.238v-0.953c0-0.143,0.096-0.238,0.239-0.238s0.239,0.096,0.239,0.238v0.953
		C16.239,11.476,16.143,11.571,16,11.571z M21.286,11c-0.096,0-0.144-0.048-0.191-0.095l-0.476-0.81
		C20.571,10,20.571,9.857,20.714,9.762c0.096-0.047,0.238-0.047,0.334,0.095l0.476,0.81c0.048,0.095,0.048,0.238-0.095,0.333
		C21.381,10.952,21.333,11,21.286,11z M16,9.667c-0.143,0-0.239-0.095-0.239-0.238V8.476c0-0.143,0.096-0.238,0.239-0.238
		s0.239,0.095,0.239,0.238v0.952C16.239,9.571,16.143,9.667,16,9.667z M20.333,9.333c-0.095,0-0.143-0.047-0.19-0.095l-0.477-0.809
		c-0.047-0.095-0.047-0.238,0.096-0.333C19.857,8.048,20,8.048,20.096,8.19L20.571,9c0.048,0.095,0.048,0.238-0.095,0.333
		C20.381,9.333,20.381,9.333,20.333,9.333z M16,7.762c-0.143,0-0.239-0.095-0.239-0.238V6.571c0-0.143,0.096-0.238,0.239-0.238
		s0.239,0.095,0.239,0.238v0.953C16.239,7.667,16.143,7.762,16,7.762z M19.333,7.714c-0.095,0-0.143-0.047-0.189-0.095l-0.477-0.81
		c-0.049-0.095-0.049-0.238,0.096-0.333C18.857,6.429,19,6.429,19.096,6.571l0.476,0.81c0.048,0.095,0.048,0.238-0.095,0.333
		C19.429,7.667,19.381,7.714,19.333,7.714z M18.382,6.048c-0.096,0-0.145-0.048-0.191-0.096l-0.476-0.81
		c-0.048-0.095-0.048-0.238,0.095-0.333c0.095-0.048,0.238-0.048,0.333,0.095l0.476,0.81c0.049,0.095,0.049,0.238-0.095,0.333
		C18.477,6.048,18.429,6.048,18.382,6.048z M16,5.857c-0.143,0-0.239-0.095-0.239-0.238V4.667c0-0.143,0.096-0.238,0.239-0.238
		s0.239,0.095,0.239,0.238v0.953C16.239,5.762,16.143,5.857,16,5.857z M17.429,4.428c-0.095,0-0.144-0.047-0.19-0.095l-0.477-0.809
		c-0.047-0.095-0.047-0.238,0.096-0.333c0.095-0.095,0.237-0.047,0.285,0.048l0.477,0.809c0.048,0.095,0.048,0.238-0.096,0.333
		C17.523,4.381,17.476,4.428,17.429,4.428z M16,3.952c-0.143,0-0.239-0.095-0.239-0.238V2.762c0-0.143,0.096-0.238,0.239-0.238
		s0.239,0.095,0.239,0.238v0.952C16.239,3.857,16.143,3.952,16,3.952z M16.476,2.762c-0.095,0-0.142-0.048-0.189-0.095L15.905,2
		c-0.048-0.047-0.096-0.095-0.096-0.19V1.762c0-0.096,0.096-0.191,0.19-0.238c0.095-0.048,0.19,0,0.286,0.095l0.476,0.762
		c0.047,0.096,0.047,0.238-0.095,0.333C16.524,2.762,16.476,2.762,16.476,2.762z"/>
	<path fill="#3fcdc7ee" d="M28.477,23.19h-0.715c-0.143,0-0.238-0.095-0.238-0.238c0-0.143,0.096-0.237,0.238-0.237h0.334
		c0.047-0.096,0.19-0.144,0.333-0.096l0.189,0.096c0.096,0.047,0.145,0.142,0.096,0.285C28.667,23.143,28.571,23.19,28.477,23.19z
		 M26.762,23.19H25.81c-0.143,0-0.238-0.095-0.238-0.238c0-0.143,0.096-0.237,0.238-0.237h0.952c0.143,0,0.238,0.095,0.238,0.237
		C27,23.096,26.904,23.19,26.762,23.19z M24.857,23.19h-0.953c-0.142,0-0.237-0.095-0.237-0.238c0-0.143,0.096-0.237,0.237-0.237
		h0.953c0.143,0,0.238,0.095,0.238,0.237C25.096,23.096,25,23.19,24.857,23.19z M22.952,23.19H22c-0.143,0-0.238-0.095-0.238-0.238
		c0-0.143,0.096-0.237,0.238-0.237h0.952c0.144,0,0.238,0.095,0.238,0.237C23.19,23.096,23.096,23.19,22.952,23.19z M21.048,23.19
		h-0.952c-0.144,0-0.238-0.095-0.238-0.238c0-0.143,0.095-0.237,0.238-0.237h0.952c0.143,0,0.238,0.095,0.238,0.237
		C21.286,23.096,21.19,23.19,21.048,23.19z M19.144,23.19H18.19c-0.143,0-0.238-0.095-0.238-0.238c0-0.143,0.096-0.237,0.238-0.237
		h0.953c0.142,0,0.237,0.095,0.237,0.237C19.381,23.096,19.285,23.19,19.144,23.19z M17.238,23.19h-0.952
		c-0.143,0-0.239-0.095-0.239-0.238c0-0.143,0.096-0.237,0.239-0.237h0.952c0.143,0,0.237,0.095,0.237,0.237
		C17.476,23.096,17.381,23.19,17.238,23.19z M15.333,23.19h-0.952c-0.143,0-0.238-0.095-0.238-0.238
		c0-0.143,0.095-0.237,0.238-0.237h0.952c0.143,0,0.239,0.095,0.239,0.237C15.572,23.096,15.476,23.19,15.333,23.19z M13.428,23.19
		h-0.952c-0.144,0-0.238-0.095-0.238-0.238c0-0.143,0.095-0.237,0.238-0.237h0.952c0.144,0,0.238,0.095,0.238,0.237
		C13.667,23.096,13.572,23.19,13.428,23.19z M11.524,23.19h-0.953c-0.142,0-0.237-0.095-0.237-0.238
		c0-0.143,0.095-0.237,0.237-0.237h0.953c0.142,0,0.238,0.095,0.238,0.237C11.762,23.096,11.666,23.19,11.524,23.19z M9.62,23.19
		H8.667c-0.143,0-0.238-0.095-0.238-0.238c0-0.143,0.096-0.237,0.238-0.237H9.62c0.142,0,0.237,0.095,0.237,0.237
		C9.857,23.096,9.762,23.19,9.62,23.19z M7.714,23.19H6.762c-0.144,0-0.238-0.095-0.238-0.238c0-0.143,0.095-0.237,0.238-0.237
		h0.952c0.144,0,0.239,0.095,0.239,0.237C7.953,23.096,7.857,23.19,7.714,23.19z M5.81,23.19H4.857
		c-0.143,0-0.237-0.095-0.237-0.238c0-0.143,0.095-0.237,0.237-0.237H5.81c0.142,0,0.239,0.095,0.239,0.237
		C6.048,23.096,5.952,23.19,5.81,23.19z M3.905,23.19H3.524c-0.096,0-0.19-0.095-0.238-0.19c-0.047-0.096,0-0.19,0.095-0.285
		l0.81-0.477c0.096-0.048,0.238-0.048,0.333,0.096c0.048,0.095,0.048,0.237-0.095,0.333l-0.333,0.189c0,0.048,0,0.048,0,0.096
		C4.143,23.096,4.047,23.19,3.905,23.19z M27.429,22.619c-0.048,0-0.095,0-0.095-0.048l-0.811-0.477
		c-0.095-0.047-0.143-0.19-0.095-0.333c0.047-0.095,0.19-0.142,0.333-0.095l0.81,0.476c0.096,0.048,0.144,0.191,0.096,0.333
		C27.619,22.571,27.523,22.619,27.429,22.619z M5.19,22.238c-0.095,0-0.142-0.048-0.189-0.096c-0.048-0.095-0.048-0.238,0.095-0.333
		l0.809-0.476C6,21.286,6.143,21.286,6.238,21.428c0.047,0.096,0.047,0.239-0.095,0.333l-0.809,0.477
		C5.286,22.238,5.238,22.238,5.19,22.238z M25.81,21.667c-0.048,0-0.096,0-0.096-0.047l-0.809-0.477
		c-0.096-0.048-0.144-0.19-0.096-0.333c0.048-0.096,0.19-0.143,0.333-0.096l0.81,0.477c0.096,0.048,0.143,0.19,0.096,0.333
		C25.952,21.62,25.905,21.667,25.81,21.667z M6.81,21.286c-0.096,0-0.144-0.047-0.191-0.096c-0.047-0.096-0.047-0.238,0.096-0.333
		l0.81-0.477c0.095-0.047,0.238-0.047,0.333,0.096c0.047,0.096,0.047,0.238-0.095,0.333l-0.81,0.477
		C6.905,21.286,6.857,21.286,6.81,21.286z M24.144,20.714c-0.048,0-0.096,0-0.096-0.047l-0.811-0.476
		c-0.095-0.048-0.142-0.191-0.095-0.333c0.048-0.096,0.19-0.143,0.334-0.096l0.809,0.477c0.096,0.047,0.144,0.19,0.096,0.333
		C24.333,20.667,24.238,20.714,24.144,20.714z M8.476,20.333c-0.095,0-0.143-0.047-0.19-0.095C8.238,20.143,8.238,20,8.381,19.905
		l0.81-0.477c0.096-0.047,0.238-0.047,0.333,0.096c0.047,0.095,0.047,0.238-0.096,0.333l-0.809,0.476
		C8.572,20.333,8.524,20.333,8.476,20.333z M22.523,19.762c-0.048,0-0.095,0-0.095-0.047l-0.81-0.477
		c-0.096-0.047-0.144-0.19-0.096-0.333c0.048-0.095,0.19-0.143,0.334-0.095l0.81,0.476c0.095,0.047,0.143,0.191,0.095,0.333
		C22.667,19.714,22.571,19.762,22.523,19.762z M10.143,19.381c-0.095,0-0.142-0.048-0.19-0.095
		c-0.047-0.095-0.047-0.238,0.096-0.333l0.809-0.476c0.096-0.047,0.239-0.047,0.333,0.095c0.047,0.095,0.047,0.238-0.095,0.333
		l-0.81,0.476C10.19,19.381,10.19,19.381,10.143,19.381z M20.857,18.81c-0.048,0-0.096,0-0.096-0.047l-0.81-0.477
		c-0.095-0.048-0.143-0.19-0.095-0.333c0.048-0.096,0.189-0.143,0.333-0.096L21,18.333c0.095,0.048,0.143,0.19,0.095,0.333
		C21,18.762,20.952,18.81,20.857,18.81z M11.762,18.429c-0.096,0-0.144-0.047-0.191-0.095c-0.047-0.096-0.047-0.238,0.096-0.333
		l0.81-0.477c0.095-0.047,0.237-0.047,0.333,0.096c0.048,0.095,0.048,0.238-0.096,0.333l-0.809,0.476
		C11.857,18.429,11.81,18.429,11.762,18.429z M19.19,17.857c-0.047,0-0.095,0-0.095-0.047l-0.81-0.476
		C18.19,17.286,18.143,17.143,18.19,17c0.047-0.096,0.191-0.143,0.333-0.096l0.81,0.477c0.096,0.047,0.144,0.19,0.096,0.333
		C19.381,17.81,19.285,17.857,19.19,17.857z M13.428,17.476c-0.095,0-0.143-0.047-0.19-0.095c-0.047-0.096-0.047-0.239,0.095-0.333
		l0.81-0.477c0.095-0.047,0.238-0.047,0.333,0.096c0.047,0.095,0.047,0.238-0.096,0.333l-0.809,0.476
		C13.524,17.476,13.476,17.476,13.428,17.476z M17.571,16.905c-0.048,0-0.096,0-0.096-0.047l-0.809-0.477
		c-0.096-0.047-0.143-0.19-0.096-0.333c0.048-0.095,0.19-0.143,0.333-0.095l0.81,0.476c0.095,0.047,0.142,0.191,0.095,0.333
		C17.715,16.857,17.619,16.905,17.571,16.905z M15.095,16.524c-0.096,0-0.143-0.048-0.19-0.096
		c-0.047-0.095-0.047-0.238,0.095-0.333l0.81-0.476c0.096-0.048,0.238-0.048,0.333,0.095c0.047,0.095,0.047,0.238-0.096,0.333
		l-0.809,0.477C15.143,16.524,15.143,16.524,15.095,16.524z"/>
</g>
</svg>
