<?xml version="1.0" encoding="utf-8"?>
<!-- Generator: Adobe Illustrator 16.0.3, SVG Export Plug-In . SVG Version: 6.00 Build 0)  -->
<!DOCTYPE svg PUBLIC "-//W3C//DTD SVG 1.1//EN" "http://www.w3.org/Graphics/SVG/1.1/DTD/svg11.dtd">
<svg version="1.1" id="Layer_2" xmlns="http://www.w3.org/2000/svg" xmlns:xlink="http://www.w3.org/1999/xlink" x="0px" y="0px"
	 width="1121.04px" height="851.8px" viewBox="0 0 1121.04 851.8" enable-background="new 0 0 1121.04 851.8" xml:space="preserve">
<g>
	<title>interaction design</title>
	<g>
		<ellipse fill="#FFFFFF" cx="213.333" cy="614.592" rx="17.545" ry="17.817"/>
		<rect x="207.667" y="621.995" fill="#FFFFFF" width="10.052" height="20.832"/>
		<path fill="#FFFFFF" d="M237.676,671.523v-18.437c0-9.501-9.727-17.203-21.727-17.203h-7.759c-12,0-21.727,7.702-21.727,17.203
			v18.437H237.676z"/>
	</g>
	<path opacity="0.5" fill="#285D83" d="M957.21,20.726c1.394,0,2.521,1.128,2.521,2.521v181.15c0,1.395-1.128,2.523-2.521,2.523
		h-99.836c-1.396,0-2.525-1.129-2.525-2.523V23.248c0-1.394,1.13-2.521,2.525-2.521H957.21z"/>
	<g>
		<path fill="#FFFFFF" d="M262.615,19.635c4.461,0,8.078,3.615,8.078,8.076V184.61c0,4.46-3.616,8.076-8.078,8.076H185.32
			c-4.461,0-8.078-3.616-8.078-8.075V27.712c0-4.462,3.616-8.077,8.078-8.077H262.615z"/>
		<g>
			<path fill="#75B7E0" d="M177.243,177.112v7.499c0,4.459,3.616,8.075,8.078,8.075h77.295c4.461,0,8.078-3.616,8.078-8.076v-7.498
				H177.243z"/>
			<path fill="#75B7E0" d="M177.243,27.712v12.691l93.45-0.002v-12.69c0-4.461-3.616-8.076-8.078-8.076H185.32
				C180.859,19.635,177.243,23.25,177.243,27.712z"/>
		</g>
		<path fill="#285D83" d="M236.551,183.975c1.273,0,2.307,1.033,2.307,2.307l0,0c0,1.272-1.033,2.31-2.307,2.31h-24.229
			c-1.273,0-2.307-1.037-2.307-2.31l0,0c0-1.273,1.034-2.307,2.307-2.307H236.551z"/>
		<path fill="#285D83" d="M188.864,36.296c2.974,0,5.383-2.41,5.383-5.386l0,0c0-2.974-2.41-5.384-5.383-5.384l0,0
			c-2.974,0-5.386,2.41-5.386,5.384l0,0C183.478,33.886,185.89,36.296,188.864,36.296L188.864,36.296z"/>
		<path fill="#285D83" d="M201.939,33.605c1.485,0,2.691-1.206,2.691-2.694l0,0c0-1.485-1.206-2.691-2.691-2.691l0,0
			c-1.488,0-2.695,1.206-2.695,2.691l0,0C199.245,32.399,200.451,33.605,201.939,33.605L201.939,33.605z"/>
	</g>
	<g>
		<path fill="#FFFFFF" d="M863.636,116.484c0,0-3.554-18.544-28.253-12.771c0,0-5.805,16.698,12.056,27.651L863.636,116.484z"/>
		<path fill="#FFFFFF" d="M929.801,114.883c0,0,2.654-18.693,27.603-14.121c0,0,6.602,16.398-10.706,28.202L929.801,114.883z"/>
		<path fill="#FFFFFF" d="M956.837,161.834c-0.829-34.273-29.283-61.387-63.558-60.557c-34.273,0.828-61.384,29.283-60.557,63.558
			c0.415,17.11,7.712,32.432,19.184,43.389c-0.307,1.678-0.458,3.46-0.414,5.313c0.228,9.426,5.274,16.948,11.274,16.805
			c4.133-0.1,7.637-3.818,9.344-9.204c7.475,2.935,15.64,4.46,24.168,4.254c7.85-0.189,15.312-1.841,22.158-4.665
			c2.021,4.9,5.543,8.135,9.49,8.039c5.999-0.145,10.676-7.903,10.448-17.329c-0.031-1.238-0.149-2.438-0.338-3.596
			C950,196.209,957.273,179.828,956.837,161.834z"/>
		
			<ellipse transform="matrix(0.9997 -0.0242 0.0242 0.9997 -3.8287 21.717)" fill="#A6D6F1" cx="896.476" cy="169.244" rx="28.97" ry="18.624"/>
		<circle fill="#285D83" cx="871.966" cy="150.691" r="4.656"/>
		<path fill="#285D83" d="M926.266,149.378c0.064,2.571-1.97,4.706-4.542,4.768c-2.571,0.063-4.703-1.972-4.766-4.542
			c-0.062-2.571,1.97-4.706,4.539-4.766C924.073,144.774,926.205,146.808,926.266,149.378z"/>
		<path fill="#285D83" d="M888.847,174.733c0.046,1.928-1.479,3.528-3.406,3.575l0,0c-1.927,0.047-3.527-1.479-3.577-3.407
			l-0.279-11.634c-0.048-1.928,1.48-3.53,3.404-3.576l0,0c1.93-0.046,3.531,1.479,3.578,3.406L888.847,174.733z"/>
		<path fill="#285D83" d="M912.505,174.162c0.048,1.927-1.48,3.528-3.404,3.575l0,0c-1.927,0.046-3.527-1.479-3.575-3.407
			l-0.282-11.636c-0.047-1.926,1.479-3.528,3.405-3.575l0,0c1.93-0.047,3.53,1.479,3.578,3.407L912.505,174.162z"/>
		<path opacity="0.5" fill="#A6D6F1" d="M893.599,210.709c-55.772-6.992-53.081-67.041-51.908-79.525
			c-5.942,9.797-9.266,21.344-8.968,33.651c0.415,17.11,7.712,32.432,19.184,43.389c-0.307,1.678-0.458,3.46-0.414,5.313
			c0.228,9.426,5.274,16.948,11.274,16.805c4.133-0.1,7.637-3.818,9.344-9.204c7.475,2.935,15.64,4.46,24.168,4.254
			c7.85-0.189,15.312-1.841,22.158-4.665c2.021,4.9,5.543,8.135,9.49,8.039c5.999-0.145,10.676-7.903,10.448-17.329
			c-0.031-1.238-0.149-2.438-0.338-3.596c11.962-11.632,19.235-28.014,18.8-46.007C948.693,210.154,893.599,210.709,893.599,210.709
			z"/>
	</g>
	<g>
		<circle fill="#FFD700" cx="898.915" cy="60.152" r="26.381"/>
		<path fill="#FFFFFF" d="M898.914,83.197c-12.706,0-23.044-10.337-23.044-23.045c0-12.707,10.338-23.046,23.044-23.046
			c12.71,0,23.049,10.339,23.049,23.046C921.962,72.86,911.624,83.197,898.914,83.197z M898.914,40.209
			c-10.997,0-19.94,8.946-19.94,19.942c0,10.997,8.943,19.941,19.94,19.941c10.996,0,19.944-8.944,19.944-19.941
			C918.858,49.156,909.91,40.209,898.914,40.209z"/>
		<g>
			<path fill="#FFFFFF" d="M895.993,71.88c0,0-0.465-0.125-1.396-0.377c-0.93-0.255-1.8-0.631-2.608-1.131
				c-0.812-0.5-1.574-1.124-2.283-1.877l2.21-2.677c0.773,0.935,1.63,1.637,2.569,2.104c0.941,0.468,1.966,0.702,3.071,0.702
				c1.527,0,2.668-0.299,3.419-0.896c0.752-0.596,1.13-1.502,1.13-2.716v-0.017c0-0.774-0.185-1.385-0.548-1.837
				c-0.367-0.451-0.84-0.79-1.418-1.016c-0.583-0.227-1.325-0.424-2.227-0.597c-0.033-0.012-0.063-0.017-0.09-0.017
				c-0.026,0-0.054-0.005-0.089-0.017c-0.054-0.01-0.111-0.021-0.168-0.03c-0.06-0.012-0.116-0.022-0.17-0.033
				c-1.439-0.271-2.606-0.57-3.498-0.903c-0.894-0.334-1.656-0.937-2.291-1.814c-0.633-0.876-0.949-2.12-0.949-3.732v-0.016
				c0-1.569,0.284-2.873,0.855-3.911c0.568-1.038,1.421-1.817,2.555-2.339c1.133-0.521,2.555-0.78,4.264-0.78
				c0.752,0,1.497,0.077,2.234,0.232c0.734,0.157,1.464,0.394,2.182,0.709c0.722,0.318,1.437,0.714,2.146,1.187l-1.982,2.724
				c-0.797-0.537-1.572-0.937-2.331-1.2c-0.757-0.263-1.509-0.395-2.249-0.395c-1.417,0-2.482,0.293-3.191,0.879
				c-0.713,0.586-1.067,1.465-1.067,2.638v0.015c0,0.807,0.207,1.437,0.613,1.893c0.408,0.459,0.925,0.793,1.543,1.008
				c0.615,0.216,1.464,0.443,2.537,0.68c0.046,0.009,0.088,0.021,0.131,0.03c0.04,0.012,0.09,0.022,0.146,0.033
				c0.054,0.011,0.105,0.022,0.149,0.033c0.054,0.011,0.102,0.02,0.155,0.033c1.267,0.279,2.332,0.619,3.187,1.021
				c0.854,0.403,1.563,1.052,2.134,1.945c0.568,0.891,0.854,2.105,0.854,3.641v0.034c0,1.516-0.295,2.775-0.886,3.781
				c-0.591,1.005-1.476,1.756-2.653,2.256s-2.65,0.75-4.427,0.75C896.513,71.88,895.993,71.88,895.993,71.88z M896.22,45.341h3.287
				v29.152h-3.287V45.341z"/>
		</g>
	</g>
	<g>
		<path fill="#75B7E0" d="M841.156,583.887c0,16.481-12.847,29.848-28.682,29.848H342.64c-15.838,0-28.68-13.366-28.68-29.848
			V276.873c0-16.49,12.841-29.848,28.68-29.848h469.834c15.835,0,28.682,13.357,28.682,29.848V583.887z"/>
		<rect x="357.662" y="279.81" fill="#F9F4F5" width="442.519" height="286.804"/>
		<path fill="#285D83" d="M580.977,592.569c0,5.654-4.586,10.236-10.246,10.236c-5.656,0-10.241-4.582-10.241-10.236
			c0-5.661,4.585-10.253,10.241-10.253C576.391,582.316,580.977,586.908,580.977,592.569z"/>
		<path fill="#75B7E0" d="M326.945,619.198l-74.778,74.776c0,0-19.457,25.609,21.511,25.609h606.404c0,0,31.544,1.466,24.585-20.486
			L825.79,620.22L326.945,619.198z"/>
		<polygon fill="#F9F4F5" points="845.684,680.652 788.42,626.154 370.59,625.343 312.467,680.652 		"/>
		<g>
			<polygon fill="#F9F4F5" points="575.547,705.241 664.879,705.241 643.772,687.072 575.547,686.952 			"/>
			<polygon fill="#F9F4F5" points="571.011,686.922 503.42,686.804 482.007,705.241 571.011,705.241 			"/>
		</g>
	</g>
	<path fill="#FFFFFF" d="M923.49,587.037c-5.134,0-9.312-4.178-9.312-9.313c0-5.134,4.178-9.312,9.312-9.312
		c5.135,0,9.311,4.178,9.311,9.312C932.8,582.859,928.625,587.037,923.49,587.037z M923.49,571.517
		c-3.423,0-6.209,2.784-6.209,6.206c0,3.425,2.786,6.208,6.209,6.208c3.426,0,6.208-2.783,6.208-6.208
		C929.698,574.301,926.916,571.517,923.49,571.517z"/>
	<path fill="#FFFFFF" d="M287.215,383.738c-5.135,0-9.311-4.176-9.311-9.311s4.176-9.312,9.311-9.312
		c5.134,0,9.312,4.177,9.312,9.312S292.349,383.738,287.215,383.738z M287.215,368.219c-3.423,0-6.208,2.784-6.208,6.208
		s2.784,6.207,6.208,6.207c3.424,0,6.208-2.783,6.208-6.207S290.639,368.219,287.215,368.219z"/>
	<path fill="#FFFFFF" d="M229.795,219.238c-5.135,0-9.311-4.177-9.311-9.312s4.176-9.312,9.311-9.312s9.312,4.177,9.312,9.312
		S234.93,219.238,229.795,219.238z M229.795,203.718c-3.423,0-6.208,2.785-6.208,6.208c0,3.424,2.784,6.208,6.208,6.208
		s6.208-2.784,6.208-6.208C236.002,206.503,233.218,203.718,229.795,203.718z"/>
	<path fill="#FFFFFF" d="M900.211,256.483c-5.134,0-9.312-4.177-9.312-9.311c0-5.135,4.178-9.313,9.312-9.313
		c5.136,0,9.311,4.178,9.311,9.313C909.522,252.306,905.347,256.483,900.211,256.483z M900.211,240.964
		c-3.423,0-6.207,2.784-6.207,6.208c0,3.423,2.784,6.207,6.207,6.207c3.424,0,6.208-2.784,6.208-6.207
		C906.419,243.749,903.635,240.964,900.211,240.964z"/>
	<path fill="#FFFFFF" d="M523.103,222.341c-5.135,0-9.313-4.177-9.313-9.312s4.178-9.312,9.313-9.312
		c5.134,0,9.311,4.177,9.311,9.312S528.237,222.341,523.103,222.341z M523.103,206.823c-3.424,0-6.208,2.784-6.208,6.207
		c0,3.424,2.784,6.208,6.208,6.208s6.207-2.784,6.207-6.208C529.31,209.607,526.527,206.823,523.103,206.823z"/>
	<g>
		<path fill="#F9F4F5" d="M562.396,146.616c-2.788,0-5.478,0.421-8.023,1.17c-3.461-14.376-16.373-25.071-31.81-25.071
			c-15.351,0-28.198,10.573-31.747,24.825c-14.311,0.407-25.795,12.109-25.795,26.519c0,14.273,11.273,25.886,25.398,26.498
			c0.039,0.018,0.076,0.042,0.117,0.059h22.287v-20.36H498.66l22.131-22.13l23.902,21.835h-13.279v20.655h19.065h5.877h17.958
			c9.685-4.504,16.411-14.291,16.411-25.671C590.725,159.3,578.043,146.616,562.396,146.616z"/>
	</g>
	<g>
		<rect x="956.201" y="561.687" fill="#285D83" width="8.277" height="37.245"/>
		<circle fill="#75B7E0" cx="960.338" cy="549.79" r="31.038"/>
		<circle fill="#FFFFFF" cx="960.337" cy="549.79" r="23.278"/>
		<path fill="#75B7E0" d="M967.583,650.663c0,3.999-3.244,7.24-7.246,7.24l0,0c-3.996,0-7.24-3.241-7.24-7.24v-53.802
			c0-3.996,3.244-7.24,7.24-7.24l0,0c4.002,0,7.246,3.244,7.246,7.24V650.663z"/>
	</g>
	<g>
		<circle fill="#F9F4F5" cx="200.206" cy="545.294" r="12.888"/>
		<circle fill="#F9F4F5" cx="249.042" cy="545.294" r="12.887"/>
		<path fill="#F9F4F5" d="M272.105,548.685l-89.006-0.009c-0.073-0.008-7.311-0.934-7.311-11.521v-14.924
			c0-0.751,0.606-1.356,1.354-1.356c0.752,0,1.358,0.605,1.358,1.356v14.924c0,7.662,4.252,8.707,4.849,8.816h88.755
			c0.749,0,1.356,0.607,1.356,1.356C273.461,548.077,272.854,548.685,272.105,548.685z"/>
		<path fill="#F9F4F5" d="M272.783,490.353H161.544c-0.375,0-0.678-0.305-0.678-0.679c0-0.375,0.303-0.678,0.678-0.678h111.239
			c0.374,0,0.679,0.303,0.679,0.678C273.461,490.048,273.157,490.353,272.783,490.353z"/>
		<path fill="#F9F4F5" d="M271.426,501.881H164.936c-0.375,0-0.679-0.301-0.679-0.677c0-0.375,0.305-0.678,0.679-0.678h106.491
			c0.376,0,0.679,0.303,0.679,0.678C272.105,501.581,271.802,501.881,271.426,501.881z"/>
		<path fill="#F9F4F5" d="M269.73,513.751H167.986c-0.373,0-0.676-0.303-0.676-0.676c0-0.374,0.303-0.679,0.676-0.679H269.73
			c0.375,0,0.677,0.305,0.677,0.679C270.408,513.449,270.105,513.751,269.73,513.751z"/>
		<path fill="#F9F4F5" d="M269.78,526.302h-81.784c-18.755,0-21.369-10.21-21.658-11.761c-4.7-16.681-12.28-43.008-14.302-48.649
			l-20.402-0.635c-1.123-0.037-2.006-0.977-1.97-2.1c0.034-1.124,0.959-2.047,2.098-1.97l22.754,0.711l0.582,0.871
			c0.555,0.838,2.458,6.853,4.801,14.7l117.289,0.687L269.78,526.302z M161.106,481.548c3.249,11.029,7.001,24.264,9.179,31.991
			l0.059,0.282c0.052,0.319,1.555,8.41,17.652,8.41h78.292l6.159-40.032L161.106,481.548z"/>
		<path fill="#F9F4F5" d="M179.857,524.494c-0.375,0-0.677-0.303-0.677-0.678V479.05c0-0.377,0.303-0.68,0.677-0.68
			s0.679,0.303,0.679,0.68v44.766C180.536,524.191,180.231,524.494,179.857,524.494z"/>
		<path fill="#F9F4F5" d="M204.728,524.494c-0.376,0-0.679-0.303-0.679-0.678V479.05c0-0.377,0.303-0.68,0.679-0.68
			c0.375,0,0.679,0.303,0.679,0.68v44.766C205.407,524.191,205.103,524.494,204.728,524.494z"/>
		<path fill="#F9F4F5" d="M229.598,524.494c-0.373,0-0.676-0.303-0.676-0.678V479.05c0-0.377,0.304-0.68,0.676-0.68
			c0.375,0,0.679,0.303,0.679,0.68v44.766C230.277,524.191,229.974,524.494,229.598,524.494z"/>
		<path fill="#F9F4F5" d="M254.471,524.494c-0.376,0-0.68-0.303-0.68-0.678V479.05c0-0.377,0.303-0.68,0.68-0.68
			c0.374,0,0.677,0.303,0.677,0.68v44.766C255.148,524.191,254.845,524.494,254.471,524.494z"/>
	</g>
	<g>
		<circle fill="#75B7E0" cx="371.017" cy="118.659" r="56.643"/>
		<polygon fill="#FFFFFF" points="404.207,118.216 379.868,132.268 355.529,146.32 355.529,118.216 355.529,90.113 379.868,104.165 
					"/>
	</g>
	<g>
		<rect x="445.451" y="1.973" fill="#FFFFFF" width="93.451" height="66.902"/>
		<polygon fill="#285D83" points="445.451,1.973 493.654,42.504 538.902,1.973 		"/>
	</g>
	<g>
		<circle fill="#285D83" cx="854.949" cy="399.256" r="10.864"/>
		<circle fill="#FFFFFF" cx="855.725" cy="399.256" r="5.432"/>
	</g>
	<g>
		<circle fill="#285D83" cx="729.504" cy="181.992" r="10.863"/>
		<circle fill="#FFFFFF" cx="730.279" cy="181.992" r="5.432"/>
	</g>
	<g>
		<circle fill="#285D83" cx="563.451" cy="43.874" r="10.863"/>
		<circle fill="#FFFFFF" cx="564.228" cy="43.874" r="5.431"/>
	</g>
	<g>
		<circle fill="#285D83" cx="291.871" cy="510.992" r="10.863"/>
		<circle fill="#FFFFFF" cx="292.646" cy="510.992" r="5.432"/>
	</g>
	<g>
		<circle fill="#285D83" cx="378.777" cy="186.648" r="10.863"/>
		<circle fill="#FFFFFF" cx="379.552" cy="186.648" r="5.432"/>
	</g>
	<g>
		<circle fill="#FFFFFF" cx="260.833" cy="641.352" r="10.863"/>
		<circle fill="#285D83" cx="261.609" cy="641.352" r="5.432"/>
	</g>
	<path fill="#285D83" d="M777.612,476.075h-1.549v-1.551h1.549c5.563,0,10.087-4.526,10.087-10.087l1.553-0.127v0.127
		C789.251,470.854,784.031,476.075,777.612,476.075z M757.443,476.075h-18.621v-1.551h18.621V476.075z M720.201,476.075h-18.62
		v-1.551h18.62V476.075z M682.959,476.075h-18.621v-1.551h18.621V476.075z M645.72,476.075h-18.623v-1.551h18.623V476.075z
		 M608.477,476.075h-18.623v-1.551h18.623V476.075z M571.235,476.075h-18.621v-1.551h18.621V476.075z M533.994,476.075h-18.621
		v-1.551h18.621V476.075z M496.752,476.075h-18.62v-1.551h18.62V476.075z M459.51,476.075h-18.62v-1.551h18.62V476.075z
		 M422.269,476.075h-18.621v-1.551h18.621V476.075z M385.028,476.075h-9.355c-3.357,0-6.551-1.449-8.763-3.98l1.168-1.021
		c1.917,2.191,4.686,3.45,7.595,3.45h9.355V476.075z M365.586,453.622h-1.552V435h1.552V453.622z M789.251,445.687h-1.553v-18.618
		h1.553V445.687z M365.586,416.379h-1.552v-18.621h1.552V416.379z M789.251,408.447h-1.553v-18.62h1.553V408.447z M365.586,379.139
		h-1.552v-18.621h1.552V379.139z M789.251,371.206h-1.553v-18.62h1.553V371.206z M365.586,341.897h-1.552v-18.621h1.552V341.897z
		 M789.251,333.964h-1.553v-18.621h1.553V333.964z M364.034,304.656v-0.064c0-6.418,5.221-11.639,11.639-11.639h1.486v1.552h-1.486
		c-5.562,0-10.086,4.525-10.086,10.087L364.034,304.656z M785.171,297.91c-1.916-2.164-4.671-3.405-7.56-3.405h-9.416v-1.552h9.416
		c3.334,0,6.511,1.432,8.721,3.928L785.171,297.91z M749.571,294.504h-18.618v-1.552h18.618V294.504z M712.332,294.504H693.71
		v-1.552h18.621V294.504z M675.09,294.504h-18.621v-1.552h18.621V294.504z M637.848,294.504h-18.62v-1.552h18.62V294.504z
		 M600.607,294.504h-18.62v-1.552h18.62V294.504z M563.366,294.504h-18.62v-1.552h18.62V294.504z M526.125,294.504h-18.621v-1.552
		h18.621V294.504z M488.884,294.504h-18.621v-1.552h18.621V294.504z M451.642,294.504h-18.621v-1.552h18.621V294.504z
		 M414.4,294.504H395.78v-1.552H414.4V294.504z"/>
	<polygon fill="#F9F4F5" points="915.731,580.829 825.721,580.829 825.721,450.47 786.923,450.47 786.923,447.366 828.824,447.366 
		828.824,577.723 915.731,577.723 	"/>
	<polygon fill="#F9F4F5" points="858.31,363.564 788.474,363.564 788.474,360.459 855.206,360.459 855.206,279.761 898.661,279.761 
		898.661,254.931 901.763,254.931 901.763,282.866 858.31,282.866 	"/>
	<rect x="790.027" y="397.705" fill="#285D83" width="55.869" height="3.104"/>
	<rect x="727.951" y="189.751" fill="#285D83" width="3.104" height="103.977"/>
	<rect x="521.55" y="219.238" fill="#F9F4F5" width="3.104" height="71.387"/>
	<polygon fill="#285D83" points="606.904,293.728 603.8,293.728 603.8,45.426 569.659,45.426 569.659,42.323 606.904,42.323 	"/>
	<polygon fill="#285D83" points="454.82,292.176 451.716,292.176 451.716,228.549 378.776,228.549 378.776,192.856 381.88,192.856 
		381.88,225.446 454.82,225.446 	"/>
	<polygon fill="#F9F4F5" points="361.706,320.111 327.564,320.111 327.564,239.413 228.243,239.413 228.243,216.134 
		231.347,216.134 231.347,236.308 330.668,236.308 330.668,317.006 361.706,317.006 	"/>
	<rect x="296.526" y="372.875" fill="#F9F4F5" width="66.731" height="3.103"/>
	<polygon fill="#285D83" points="332.22,512.544 302.734,512.544 302.734,509.441 329.116,509.441 329.116,445.815 363.258,445.815 
		363.258,448.917 332.22,448.917 	"/>
	<polygon fill="#285D83" points="409.814,642.904 271.696,642.904 271.696,639.799 406.71,639.799 406.71,476.852 409.814,476.852 	
		"/>
	<g>
		<path id="XMLID_8_" fill="#AAD0E2" d="M682.841,389.687c-1.217,0-2.422,0.046-3.616,0.127
			c-4.041-23.473-24.493-41.331-49.119-41.331c-11.261,0-21.649,3.736-29.995,10.035c-9.02-15.912-26.106-26.65-45.704-26.65
			c-28.997,0-52.503,23.507-52.503,52.504c0,1.838,0.096,3.652,0.279,5.44c-1.19-0.08-2.391-0.125-3.603-0.125
			c-28.997,0-52.503,23.507-52.503,52.504c0,28.995,23.506,52.503,52.503,52.503h184.261c28.995,0,52.503-23.508,52.503-52.503
			C735.344,413.194,711.836,389.687,682.841,389.687z"/>
		<path id="XMLID_7_" fill="#C0E7F2" d="M682.841,389.687c-1.217,0-2.422,0.046-3.616,0.127
			c-4.041-23.473-24.493-41.331-49.119-41.331c-11.261,0-21.649,3.736-29.995,10.035c-9.02-15.912-26.106-26.65-45.704-26.65
			c-28.997,0-52.503,23.507-52.503,52.504c0,1.838,0.096,3.652,0.279,5.44c-1.19-0.08-2.391-0.125-3.603-0.125
			c-28.997,0-52.503,23.507-52.503,52.504c0,28.995,23.506,52.503,52.503,52.503h184.261c28.995,0,52.503-23.508,52.503-52.503
			C735.344,413.194,711.836,389.687,682.841,389.687z"/>
		<path fill="#F9F4F5" d="M575.711,343.506c-4.862-1.553-10.044-2.394-15.422-2.394c-27.981,0-50.663,22.683-50.663,50.664
			c0,1.772,0.091,3.524,0.27,5.251c-1.15-0.078-2.308-0.121-3.477-0.121c-27.98,0-50.664,22.683-50.664,50.663
			c0,9.189,2.449,17.806,6.729,25.235c-1.932-22.859,1.526-66.501,56.317-65.435C518.242,392.447,520.888,345.658,575.711,343.506z"
			/>
		<path fill="#A6D6F1" d="M523.968,494.694h158.873c28.995,0,52.503-23.508,52.503-52.503c0-6.191-1.08-12.13-3.048-17.646
			C697.772,492.536,581.015,486.517,523.968,494.694z"/>
		<g id="XMLID_38_">
			<g id="XMLID_42_">
				<g id="XMLID_45_">
					<path id="XMLID_49_" fill="#285D83" d="M632.801,481.714h-11.635v-38.473c0-16.794-13.663-30.456-30.456-30.456
						s-30.455,13.662-30.455,30.456v38.473h-11.635v-38.473c0-23.21,18.882-42.092,42.09-42.092
						c23.21,0,42.091,18.882,42.091,42.092V481.714z"/>
				</g>
				<g id="XMLID_43_">
					<path id="XMLID_44_" fill="#75B7E0" d="M650.614,539.949c0,2.492-2.021,4.512-4.512,4.512H535.32
						c-2.491,0-4.511-2.02-4.511-4.512v-71.98c0-2.492,2.02-4.512,4.511-4.512h110.782c2.49,0,4.512,2.02,4.512,4.512V539.949z"/>
				</g>
			</g>
		</g>
		<path fill="#1B5477" d="M621.167,463.457c0,0,9.992-12.468,11.243-25.881v25.881H621.167z"/>
		<path fill="#5FACD3" d="M650.614,539.949v-44.104c-36.498,30.878-89.121,42.48-118.94,46.737c0.818,1.134,2.143,1.878,3.646,1.878
			h110.782C648.592,544.46,650.614,542.439,650.614,539.949z"/>
		<path fill="#38332B" d="M600.611,491.76c0-5.468-4.433-9.9-9.9-9.9s-9.9,4.433-9.9,9.9c0,3.26,1.582,6.142,4.014,7.945
			l-3.151,22.388h18.076l-3.149-22.388C599.029,497.902,600.611,495.02,600.611,491.76z"/>
		<path fill="#191611" d="M581.672,522.093c0,0,14.126-5.404,15.161-20.714l2.915,20.714H581.672z"/>
	</g>
	<g>
		<g>
			<g>
				<path fill="#FFD3D6" d="M732.462,849.828V623.144c0-20.998-17.024-38.019-38.021-38.019c-20.997,0-38.019,17.021-38.019,38.019
					v226.684H732.462z"/>
				<path fill="#FFD3D6" d="M660.209,597.433c-6.943,0-13.142-4.896-14.543-11.964l-22.652-114.532
					c-1.595-8.039,3.637-15.845,11.674-17.434c8.041-1.595,15.843,3.639,17.436,11.674l22.656,114.534
					c1.59,8.037-3.637,15.847-11.674,17.438C662.132,597.341,661.166,597.433,660.209,597.433z"/>
				<path fill="#FFD3D6" d="M677.968,605.878c-8.195,0-14.839-6.644-14.839-14.838v-59.563c0-8.194,6.644-14.84,14.839-14.84
					c8.194,0,14.838,6.646,14.838,14.84v59.563C692.806,599.235,686.163,605.878,677.968,605.878z"/>
				<path fill="#FFD3D6" d="M698.243,616.438c-8.194,0-14.838-6.644-14.838-14.837v-59.564c0-8.195,6.644-14.837,14.838-14.837
					c8.196,0,14.836,6.642,14.836,14.837v59.564C713.079,609.794,706.439,616.438,698.243,616.438z"/>
				<path fill="#FFD3D6" d="M718.523,630.379c-8.196,0-14.842-6.645-14.842-14.839v-59.563c0-8.192,6.646-14.836,14.842-14.836
					c8.19,0,14.838,6.644,14.838,14.836v59.563C733.361,623.735,726.713,630.379,718.523,630.379z"/>
				<g>
					<path fill="#FFEFE3" d="M646.718,461.453c0.835,3.131-2.928,6.852-8.404,8.311c-5.474,1.462-10.595,0.108-11.425-3.021
						c-0.835-3.129,2.929-6.851,8.4-8.311C640.773,456.972,645.884,458.324,646.718,461.453z"/>
					<path fill="#D5B597" d="M633.824,473.326c-3.127,0-5.425-0.579-5.477-0.596c-0.363-0.095-0.578-0.46-0.481-0.82
						c0.098-0.359,0.463-0.574,0.821-0.481c0.125,0.033,12.638,3.171,18.493-5.813c0.201-0.312,0.622-0.396,0.933-0.195
						c0.312,0.205,0.4,0.622,0.197,0.931C644.541,472.127,638.321,473.326,633.824,473.326z"/>
				</g>
				<g>
					<path fill="#FFD3D6" d="M672.91,657.585c-7.834,0-14.369-6.15-14.761-14.06c-2.219-44.72-32.949-54.851-46.06-57.132
						c-8.047-1.399-13.436-9.059-12.036-17.108c1.397-8.049,9.057-13.436,17.107-12.038c18.902,3.287,35.369,12.056,47.604,25.354
						c14.015,15.228,21.729,35.231,22.932,59.457c0.405,8.159-5.886,15.1-14.041,15.506
						C673.409,657.578,673.157,657.585,672.91,657.585z"/>
					<path fill="#FFEFE3" d="M612.089,586.394c2.671,0.467,6.088,1.267,9.83,2.61c-3.572-9.973-8.984-11.694-8.984-11.694
						c-7.603-2.954-8.872,2.536-8.872,2.536c-0.259,0.574-0.458,1.124-0.613,1.663C605.602,583.996,608.595,585.785,612.089,586.394
						z"/>
					<path fill="#D5B597" d="M626.029,590.197c-0.3,0-0.567-0.214-0.62-0.521c-1.219-6.695-4.229-9.774-4.263-9.803
						c-0.244-0.249-0.244-0.651,0-0.896c0.253-0.246,0.651-0.246,0.896,0c0.136,0.137,3.322,3.387,4.612,10.474
						c0.063,0.342-0.166,0.674-0.511,0.737C626.108,590.195,626.069,590.197,626.029,590.197z"/>
				</g>
				<path fill="#D5B597" d="M692.987,535.172c-0.349,0-0.631-0.28-0.631-0.631v-5.387c0-0.351,0.282-0.633,0.631-0.633
					c0.354,0,0.636,0.282,0.636,0.633v5.387C693.623,534.892,693.341,535.172,692.987,535.172z"/>
				<path fill="#D5B597" d="M712.846,548.693c-0.354,0-0.637-0.286-0.637-0.633v-5.389c0-0.351,0.282-0.632,0.637-0.632
					c0.35,0,0.63,0.281,0.63,0.632v5.389C713.476,548.407,713.196,548.693,712.846,548.693z"/>
			</g>
		</g>
		<g opacity="0.5">
			<path fill="#F8A9AF" d="M612.303,564.836c9.583-1.826,26.245,5.806,33.774,9.586l-4.107-9.13
				c-7.303-4.107-20.258-7.255-24.81-8.045c-8.051-1.397-15.71,3.989-17.107,12.038c-0.011,0.051-0.011,0.104-0.021,0.152
				C602.711,568.156,609.162,565.432,612.303,564.836z"/>
			<path fill="#F8A9AF" d="M643.909,476.13l12.042,60.879c2.167-5.51,7.524-9.418,13.801-9.418c7.125,0,13.073,5.028,14.504,11.728
				c1.776-0.749,3.726-1.165,5.772-1.165c8.192,0,14.837,6.643,14.837,14.837v0.054c0.036,0.013,0.067,0.036,0.098,0.057
				c1.661-0.641,3.459-1.006,5.344-1.006c8.191,0,14.84,6.644,14.84,14.836v59.562c0,1.893-0.369,3.692-1.015,5.355
				c0.044,0.75,0.114,1.492,0.114,2.251v215.729h8.217V623.144c0-0.759-0.068-1.5-0.114-2.25c0.646-1.663,1.013-3.465,1.013-5.354
				v-59.563c0-8.192-6.647-14.836-14.838-14.836c-1.885,0-3.681,0.365-5.344,1.008c-0.033-0.022-0.06-0.046-0.101-0.062v-0.051
				c0-8.195-6.64-14.837-14.836-14.837c-2.046,0-3.997,0.415-5.771,1.163c-1.431-6.697-7.377-11.726-14.504-11.726
				c-6.28,0-11.636,3.908-13.805,9.418l-12.04-60.878c-1.593-8.035-9.395-13.269-17.436-11.674
				c-6.239,1.233-10.771,6.217-11.75,12.145c1.103-0.527,2.28-0.943,3.533-1.19C634.513,462.865,642.314,468.096,643.909,476.13z"/>
		</g>
		<g>
			<rect x="647.625" y="674.994" fill="#285D83" width="87.939" height="30.123"/>
			<path fill="#FFC600" d="M718.826,688.681c0,15.127-12.26,27.384-27.384,27.384s-27.384-12.257-27.384-27.384
				c0-15.126,12.26-27.385,27.384-27.385S718.826,673.555,718.826,688.681z"/>
			<circle fill="#FFFFFF" cx="691.443" cy="688.681" r="22.819"/>
			<g>
				<rect x="689.897" y="674.838" fill="#285D83" width="1.825" height="13.693"/>
				<polygon fill="#285D83" points="689.951,688.625 690.884,687.057 702.643,694.074 701.711,695.643 				"/>
			</g>
		</g>
	</g>
	<path fill="#F9F4F5" d="M921.108,355.955c-22.039,0-39.972,17.933-39.972,39.973s17.933,39.973,39.972,39.973
		c22.04,0,39.968-17.933,39.968-39.973S943.148,355.955,921.108,355.955z M886.905,398.74h10.443
		c0.181,4.587,0.782,8.952,1.781,12.953h-8.501C888.583,407.755,887.284,403.379,886.905,398.74z M923.921,374.536v-12.48
		c4.497,1.384,8.505,5.976,11.303,12.48H923.921z M937.202,380.163c1.118,3.956,1.831,8.338,2.04,12.95h-15.32v-12.95H937.202z
		 M918.292,362.055v12.48h-11.305C909.787,368.03,913.794,363.439,918.292,362.055z M918.292,380.163v12.95h-15.321
		c0.208-4.612,0.921-8.994,2.038-12.95H918.292z M897.348,393.113h-10.443c0.379-4.638,1.679-9.014,3.722-12.95h8.503
		C898.128,384.164,897.529,388.527,897.348,393.113z M902.971,398.74h15.321v12.953h-13.281
		C903.892,407.737,903.179,403.353,902.971,398.74z M918.292,417.32v12.479c-4.498-1.384-8.506-5.974-11.305-12.479H918.292z
		 M923.921,429.798V417.32h11.303C932.426,423.825,928.418,428.415,923.921,429.798z M923.921,411.693V398.74h15.32
		c-0.209,4.613-0.922,8.997-2.04,12.953H923.921z M944.865,398.74h10.442c-0.378,4.64-1.678,9.016-3.724,12.953h-8.499
		C944.082,407.692,944.681,403.327,944.865,398.74z M944.865,393.113c-0.184-4.586-0.781-8.949-1.78-12.95h8.501
		c2.044,3.937,3.344,8.313,3.722,12.95H944.865z M947.928,374.536h-6.603c-1.296-3.484-2.893-6.603-4.754-9.231
		C940.992,367.544,944.861,370.697,947.928,374.536z M905.64,365.303c-1.858,2.63-3.457,5.748-4.753,9.232h-6.604
		C897.352,370.697,901.223,367.544,905.64,365.303z M894.286,417.32h6.603c1.295,3.483,2.894,6.601,4.752,9.231
		C901.223,424.31,897.353,421.158,894.286,417.32z M936.572,426.549c1.861-2.629,3.458-5.746,4.754-9.229h6.602
		C944.861,421.158,940.99,424.31,936.572,426.549z"/>
	<g>
		<path fill-rule="evenodd" clip-rule="evenodd" fill="#FFFFFF" d="M250.804,349.721c6.02,0.39,10.493,6.398,9.013,13.111
			c-1.776,8.08-2.959,16.292-4.406,24.445c-0.638,3.596-1.227,7.196-1.934,10.776c-0.97,4.887-5.179,8.464-10.049,8.467
			c-26.979,0.024-53.967,0.011-80.948,0.005c-0.375,0-0.754-0.084-1.129-0.129c0.448-2.671,0.824-5.356,1.364-8.007
			c0.909-4.462,1.685-8.952,2.503-13.423c0.886-4.846,1.836-9.683,2.61-14.554c0.532-3.366,1.137-6.724,1.771-10.075
			c0.505-2.672,0.981-5.356,3.008-7.441c2.59-2.662,5.886-3.327,9.38-3.333c21.727-0.021,43.453-0.021,65.18,0.018
			C248.482,349.582,249.727,349.651,250.804,349.721z"/>
		<path fill-rule="evenodd" clip-rule="evenodd" fill="#75B7E0" d="M249.161,343.684c0,1.287,0.005,2.229,0,4.316
			c0.005,1.55-0.679,1.581-1.996,1.581c-21.727-0.039-43.453-0.039-65.18-0.018c-3.494,0.006-6.79,0.671-9.38,3.333
			c-2.027,2.085-2.503,4.77-3.008,7.441c-0.633,3.352-1.239,6.709-1.771,10.075c-0.773,4.871-1.724,9.708-2.61,14.554
			c-0.818,4.471-1.594,8.961-2.503,13.423c-0.541,2.65-0.916,5.336-1.364,8.007c-0.426,0.171-0.844,0.135-1.255-0.05
			c-0.289-0.572-0.741-0.427-1.194-0.272c-3.765-0.577-7.243-3.994-7.856-7.792c-0.19-1.179-0.317-2.382-0.317-3.575
			c-0.02-19.717-0.02-39.434-0.008-59.15c0.002-2.363,0.243-4.692,1.561-6.758c2.018-3.162,4.885-5.017,8.652-5.053
			c8.41-0.085,16.822-0.018,25.232-0.051c0.88-0.003,1.407,0.42,1.959,0.976c2.66,2.671,5.37,5.291,7.977,8.01
			c0.991,1.034,2.051,1.438,3.463,1.435c12.842-0.036,25.673,0.003,38.508-0.036c3.403-0.011,6.346,0.922,8.611,3.549
			C248.18,339.36,249.15,341.336,249.161,343.684z"/>
	</g>
	<g>
		<g>
			<path fill="#EEEEEE" d="M789.219,20.939L731.053,7.603l-58.164,13.336v85.048c0,12.804,6.966,24.594,18.178,30.773l39.986,22.031
				l39.989-22.031c11.212-6.18,18.177-17.97,18.177-30.773V20.939z"/>
			<path fill="#BDBDBD" d="M694.49,130.549c-8.949-4.933-14.51-14.345-14.51-24.563V26.589l51.075-11.712l51.076,11.712v79.397
				c0,10.218-5.563,19.63-14.512,24.563l-36.564,20.146L694.49,130.549z"/>
			<path fill="#039BE5" d="M695.773,128.22c-8.103-4.464-13.135-12.983-13.135-22.233v-77.28l48.417-11.101l48.416,11.101v77.28
				c0,9.25-5.032,17.77-13.137,22.234l-35.279,19.438L695.773,128.22z"/>
			<polygon fill="#0288D1" points="731.055,17.606 682.638,28.707 682.638,38.111 731.055,27.01 779.471,38.111 779.471,28.707 			
				"/>
		</g>
		<g>
			<path fill="#FFFFFF" d="M696.991,80.617c8.577,7.26,17.155,14.519,25.731,21.778c1.213,1.028,3.397,1.456,4.547,0
				c14.27-18.046,28.538-36.091,42.808-54.137c2.542-3.216-1.978-7.801-4.549-4.548c-14.27,18.045-28.537,36.091-42.806,54.137
				c1.516,0,3.033,0,4.547,0c-8.576-7.26-17.151-14.52-25.729-21.778C698.394,73.406,693.82,77.933,696.991,80.617L696.991,80.617z"
				/>
		</g>
	</g>
</g>
</svg>
