<?xml version="1.0" encoding="utf-8"?>
<!-- Generator: Adobe Illustrator 16.0.3, SVG Export Plug-In . SVG Version: 6.00 Build 0)  -->
<!DOCTYPE svg PUBLIC "-//W3C//DTD SVG 1.1//EN" "http://www.w3.org/Graphics/SVG/1.1/DTD/svg11.dtd">
<svg version="1.1" id="Layer_1" xmlns="http://www.w3.org/2000/svg" xmlns:xlink="http://www.w3.org/1999/xlink" x="0px" y="0px"
	 width="160px" height="50px" viewBox="0 0 160 50" enable-background="new 0 0 160 50" xml:space="preserve">
<path fill="#243E89" d="M107.783,29.132c-1.54,0-1.77-0.958-1.77-1.53v-6.515H89.68v6.515c0,0.572-0.238,1.53-1.826,1.53
	c-1.563,0-1.797-0.958-1.797-1.53V11.432c0-0.572,0.24-1.531,1.852-1.531c1.541,0,1.771,0.959,1.771,1.531v6.672h16.334v-6.672
	c0-0.572,0.226-1.531,1.743-1.531c1.587,0,1.824,0.959,1.824,1.531v16.169C109.58,28.174,109.348,29.132,107.783,29.132z
	 M68.273,29.132c-0.466,0-0.879-0.225-1.225-0.668l-9.851-12.048c-0.218-0.254-0.332-0.567-0.332-0.922
	c0-0.285,0.095-0.702,0.548-1.077c0.538-0.445,1.186-0.534,1.784-0.295c0.243,0.099,0.442,0.258,0.594,0.475l8.535,10.674
	l8.524-10.745c0.178-0.222,0.515-0.483,1.115-0.483c0.191,0,0.395,0.025,0.604,0.076c0.234,0.056,0.449,0.158,0.637,0.303
	c0.172,0.135,0.318,0.281,0.438,0.434c0.151,0.201,0.229,0.415,0.229,0.639c0,0.299-0.13,0.609-0.387,0.922L69.602,28.42
	C69.197,28.895,68.752,29.132,68.273,29.132z M127.031,29.001h-4.573c-5.203,0-7.841-1.487-7.841-4.42v-9.009
	c0-0.552,0.221-1.479,1.701-1.479c1.481,0,1.703,0.926,1.703,1.479v9.009c0,1.274,2.19,1.542,4.028,1.542h5.446
	c1.788,0,3.919-0.258,3.919-1.489v-9.062c0-0.542,0.224-1.453,1.729-1.453c1.512,0,1.676,1.016,1.676,1.453v9.009
	C134.818,27.514,132.199,29.001,127.031,29.001z M152.216,29.001h-4.875c-5.222,0-7.868-1.539-7.868-4.576v-13.02
	c0-0.561,0.223-1.504,1.717-1.504c1.072,0,1.688,0.549,1.688,1.504v2.923h9.339c5.076,0,7.65,1.575,7.65,4.681v5.312
	C159.866,27.427,157.292,29.001,152.216,29.001z M142.876,17.181v7.244c0,1.127,1.336,1.698,3.967,1.698h6.332
	c1.156,0,2.019-0.168,2.56-0.503c0.496-0.306,0.729-0.735,0.729-1.352v-5.155c0-0.478,0-1.932-3.775-1.932H142.876z"/>
<circle fill="#E6E6E5" cx="24.714" cy="25" r="24.631"/>
<path fill="#CDCCCC" d="M43.213,24.895c0,0.3-0.243,0.541-0.541,0.541h-8.715v1.232h2.353c0.299,0,0.541,0.242,0.541,0.541
	c0,0.298-0.242,0.541-0.541,0.541h-2.353v1.229h4.791c0.228-0.672,0.228,1.754,0,1.084h-4.791v1.191c0,0.242-0.03,0.482-0.089,0.714
	c-0.063,0.244-0.284,0.407-0.524,0.407c-0.045,0-0.089-0.007-0.135-0.02c-0.29-0.073-0.466-0.369-0.39-0.657
	c0.037-0.144,0.056-0.294,0.056-0.444V18.527c0-0.976-0.793-1.771-1.772-1.771H18.378c-0.152,0-0.299,0.02-0.445,0.057
	c-0.289,0.074-0.585-0.1-0.658-0.389c-0.074-0.291,0.101-0.586,0.39-0.659c0.231-0.06,0.471-0.091,0.714-0.091h1.193v-1.631
	c0-0.321-0.125-0.62-0.35-0.845l-3.561-3.563c-0.237,0.118,1.078-1.4,0.766-0.765l3.561,3.561c0.431,0.429,0.666,1.002,0.666,1.611
	v1.631h1.232v-2.351c0-0.301,0.242-0.541,0.541-0.541c0.299,0,0.542,0.24,0.542,0.541v2.351H24.2V6.959
	c0-0.3,0.242-0.541,0.541-0.541c0.3,0,0.541,0.241,0.541,0.541v8.714h1.231v-2.351c0-0.301,0.243-0.539,0.541-0.539
	c0.298,0,0.541,0.24,0.541,0.541v2.351h1.231v-4.791c-0.672-0.227,1.754-0.227,1.082,0v4.791h1.193c1.574,0,2.854,1.281,2.854,2.854
	v1.195h1.633c0.32,0,0.619-0.125,0.846-0.351l3.559-3.56c-0.114-0.231,0.998,0.881,0.768,0.767L37.2,20.139
	c-0.43,0.43-1,0.668-1.609,0.668h-1.633v1.23h2.354c0.297,0,0.541,0.24,0.541,0.541c0,0.299-0.244,0.541-0.541,0.541h-2.354v1.23
	h8.715C42.971,24.35,43.213,24.593,43.213,24.895z M33.819,40.146l-3.563-3.563c-0.227-0.229-0.352-0.522-0.352-0.844v-1.638h1.193
	c0.243,0,0.482-0.024,0.715-0.088c0.289-0.074,0.465-0.371,0.392-0.66c-0.075-0.289-0.37-0.463-0.659-0.389
	c-0.146,0.036-0.293,0.055-0.443,0.055H18.379c-0.979,0-1.772-0.795-1.772-1.771V18.526c0-0.148,0.018-0.299,0.055-0.441
	c0.074-0.29-0.1-0.584-0.391-0.659c-0.289-0.074-0.584,0.099-0.658,0.389c-0.062,0.232-0.09,0.474-0.09,0.713v1.195h-4.791
	c-0.227-0.672-0.227,1.754,0,1.083h4.791v1.23h-2.352c-0.298,0-0.542,0.24-0.542,0.541c0,0.299,0.243,0.541,0.542,0.541h2.352v1.23
	H6.81c-0.299,0-0.541,0.241-0.541,0.541c0,0.3,0.242,0.541,0.541,0.541h8.713v1.232h-2.352c-0.298,0-0.542,0.24-0.542,0.541
	c0,0.298,0.243,0.541,0.542,0.541h2.352v1.23H13.89c-0.607,0-1.178,0.232-1.609,0.666l-3.56,3.561
	c-0.231-0.115,0.882,0.998,0.767,0.766l3.559-3.561c0.227-0.227,0.525-0.35,0.844-0.35h1.633v1.19c0,1.575,1.28,2.854,2.855,2.854
	h1.193V38.9c-0.672,0.226,1.754,0.226,1.082,0v-4.793h1.231v2.352c0,0.3,0.243,0.541,0.541,0.541c0.298,0,0.542-0.241,0.542-0.541
	v-2.352h1.23v8.715c0,0.299,0.244,0.541,0.543,0.541c0.298,0,0.541-0.242,0.541-0.541v-8.715h1.231v2.354
	c0,0.298,0.243,0.541,0.541,0.541c0.298,0,0.541-0.243,0.541-0.541v-2.354h1.231v1.635c0,0.605,0.236,1.178,0.666,1.607l3.561,3.561
	C32.739,41.545,34.454,39.832,33.819,40.146z"/>
<path fill="#079247" d="M41.192,27.852c0.918,0,1.666,0.75,1.666,1.666c0,0.918-0.748,1.668-1.666,1.668s-1.668-0.75-1.668-1.668
	C39.524,28.602,40.274,27.852,41.192,27.852 M41.192,26.602c-1.607,0-2.916,1.313-2.916,2.916c0,1.609,1.309,2.918,2.916,2.918
	s2.916-1.309,2.916-2.918C44.108,27.91,42.8,26.602,41.192,26.602L41.192,26.602z M9.123,19.013c0.688,0,1.251,0.56,1.251,1.251
	c0,0.689-0.563,1.249-1.251,1.249s-1.251-0.56-1.251-1.249C7.872,19.57,8.435,19.013,9.123,19.013 M9.123,18.18
	c-1.149,0-2.084,0.936-2.084,2.084s0.935,2.083,2.084,2.083s2.084-0.935,2.084-2.083C11.207,19.114,10.272,18.18,9.123,18.18
	L9.123,18.18z"/>
<path fill="#F15C27" d="M41.516,14.015c0.277,0,0.54,0.108,0.736,0.306c0.196,0.198,0.306,0.46,0.306,0.735
	c0,0.281-0.109,0.542-0.306,0.736c-0.196,0.199-0.459,0.306-0.736,0.306c-0.278,0-0.54-0.105-0.735-0.306
	c-0.195-0.194-0.307-0.455-0.307-0.736c0-0.275,0.109-0.537,0.307-0.735C40.976,14.123,41.235,14.015,41.516,14.015 M41.516,12.557
	c-0.669,0-1.296,0.26-1.769,0.732c-0.475,0.483-0.732,1.107-0.732,1.767c0,0.668,0.262,1.296,0.733,1.769
	c0.458,0.468,1.091,0.732,1.768,0.732c0.673,0,1.304-0.263,1.773-0.738c0.467-0.467,0.726-1.095,0.726-1.763
	c0-0.658-0.256-1.282-0.721-1.757l-0.008-0.008l-0.008-0.008C42.805,12.813,42.179,12.557,41.516,12.557L41.516,12.557z
	 M7.966,33.891c0.221,0,0.432,0.088,0.588,0.244c0.157,0.157,0.245,0.367,0.245,0.59c0,0.226-0.088,0.436-0.245,0.588
	c-0.156,0.158-0.367,0.244-0.588,0.244c-0.223,0-0.434-0.086-0.589-0.244c-0.158-0.152-0.244-0.362-0.244-0.588
	c0-0.223,0.086-0.433,0.244-0.59C7.532,33.979,7.743,33.891,7.966,33.891 M7.966,33.036c-0.451,0-0.875,0.176-1.193,0.495
	c-0.317,0.318-0.494,0.742-0.494,1.191c0,0.451,0.178,0.879,0.498,1.193c0.311,0.313,0.735,0.49,1.189,0.49
	c0.451,0,0.875-0.18,1.193-0.494c0.318-0.314,0.494-0.742,0.494-1.189s-0.174-0.869-0.491-1.188
	C8.836,33.211,8.414,33.036,7.966,33.036L7.966,33.036z"/>
<path fill="#1072BA" d="M29.368,8.23c0.576,0,1.043,0.464,1.043,1.041c0,0.574-0.467,1.042-1.043,1.042
	c-0.573,0-1.043-0.468-1.043-1.042C28.325,8.694,28.795,8.23,29.368,8.23 M29.368,7.188c-1.148,0-2.082,0.936-2.082,2.083
	c0,1.148,0.934,2.084,2.082,2.084c1.147,0,2.084-0.936,2.084-2.084C31.452,8.124,30.519,7.188,29.368,7.188L29.368,7.188z
	 M20.112,39.395c0.804,0,1.459,0.656,1.459,1.459c0,0.806-0.656,1.457-1.459,1.457c-0.801,0-1.457-0.651-1.457-1.457
	C18.655,40.051,19.312,39.395,20.112,39.395 M20.112,38.354c-1.379,0-2.5,1.121-2.5,2.5c0,1.377,1.121,2.5,2.5,2.5
	c1.379,0,2.5-1.123,2.5-2.5C22.612,39.475,21.491,38.354,20.112,38.354L20.112,38.354z"/>
<path fill="#FAED24" d="M14.907,7.282c0.211,0,0.429,0.08,0.592,0.242c0.324,0.324,0.324,0.855,0,1.181
	c-0.163,0.163-0.377,0.244-0.592,0.244c-0.213,0-0.426-0.081-0.588-0.244c-0.326-0.324-0.326-0.855,0-1.181
	C14.481,7.361,14.692,7.282,14.907,7.282 M14.907,6.43c-0.45,0-0.875,0.175-1.192,0.493c-0.317,0.316-0.494,0.74-0.494,1.192
	c0,0.451,0.177,0.877,0.496,1.194c0.315,0.316,0.74,0.491,1.19,0.491c0.449,0,0.873-0.175,1.191-0.491
	c0.659-0.66,0.659-1.729,0.002-2.388C15.778,6.604,15.356,6.43,14.907,6.43L14.907,6.43z M34.573,41.049
	c0.158,0,0.313,0.061,0.436,0.182c0.24,0.24,0.24,0.629,0,0.871c-0.119,0.119-0.277,0.184-0.436,0.184
	c-0.157,0-0.314-0.063-0.438-0.184c-0.238-0.242-0.238-0.631,0-0.871C34.259,41.109,34.417,41.049,34.573,41.049 M34.573,39.979
	c-0.45,0-0.875,0.178-1.193,0.494c-0.316,0.318-0.493,0.742-0.493,1.192s0.175,0.874,0.493,1.192
	c0.32,0.315,0.744,0.494,1.193,0.494c0.453,0,0.877-0.18,1.195-0.496c0.314-0.316,0.49-0.74,0.49-1.19s-0.176-0.874-0.494-1.192
	C35.448,40.154,35.024,39.979,34.573,39.979L34.573,39.979z"/>
<path fill="#B4B4B4" d="M24.714,50c-13.785,0-25-11.215-25-25s11.215-25,25-25c13.785,0,25,11.215,25,25S38.499,50,24.714,50z
	 M24.714,0.739C11.337,0.739,0.452,11.623,0.452,25c0,13.378,10.885,24.262,24.262,24.262S48.976,38.378,48.976,25
	C48.976,11.623,38.091,0.739,24.714,0.739z"/>
<g>
	<path fill="#243E89" d="M15.378,13.09H7.042c-0.276,0-0.5-0.224-0.5-0.5c0-0.276,0.224-0.5,0.5-0.5h8.336
		c0.276,0,0.5,0.224,0.5,0.5C15.878,12.866,15.654,13.09,15.378,13.09z"/>
	<path fill="#243E89" d="M25.175,46.229h-3.023c-0.276,0-0.5-0.225-0.5-0.5c0-0.276,0.224-0.5,0.5-0.5h3.023
		c0.276,0,0.5,0.224,0.5,0.5C25.675,46.004,25.451,46.229,25.175,46.229z"/>
	<path fill="#243E89" d="M22.152,46.229c-0.19,0-0.372-0.108-0.456-0.293L6.587,12.798c-0.114-0.251-0.003-0.548,0.248-0.663
		c0.25-0.115,0.547-0.004,0.663,0.248l15.109,33.139c0.114,0.25,0.003,0.547-0.248,0.662C22.292,46.213,22.221,46.229,22.152,46.229
		z"/>
	<path fill="#243E89" d="M23.19,42.119c0.251-0.113,0.364-0.41,0.25-0.661L11.563,15.094c-0.114-0.252-0.409-0.364-0.662-0.25
		c-0.251,0.114-0.364,0.41-0.25,0.662l11.878,26.363c0.083,0.186,0.266,0.295,0.457,0.295C23.053,42.163,23.123,42.148,23.19,42.119
		z"/>
	<path fill="#243E89" d="M14.628,15.3c0-0.276-0.224-0.5-0.5-0.5h-3.021c-0.276,0-0.5,0.224-0.5,0.5c0,0.276,0.224,0.5,0.5,0.5
		h3.021C14.404,15.8,14.628,15.576,14.628,15.3z"/>
	<path fill="#243E89" d="M19.333,27.011c0.252-0.112,0.366-0.407,0.254-0.659l-5.002-11.254c-0.112-0.252-0.408-0.365-0.66-0.254
		c-0.252,0.112-0.366,0.408-0.254,0.66l5.002,11.254c0.083,0.187,0.266,0.298,0.458,0.298C19.198,27.055,19.267,27.04,19.333,27.011
		z"/>
	<path fill="#243E89" d="M25.381,40.034c0.251-0.113,0.363-0.409,0.25-0.661l-3.962-8.754c-0.113-0.251-0.409-0.362-0.662-0.249
		c-0.251,0.112-0.363,0.409-0.25,0.661l3.962,8.754c0.083,0.186,0.266,0.294,0.456,0.294C25.244,40.079,25.314,40.064,25.381,40.034
		z"/>
	<path fill="#243E89" d="M25.634,39.775l8.334-19.381c0.109-0.253-0.008-0.547-0.262-0.657c-0.252-0.108-0.547,0.008-0.657,0.262
		l-8.334,19.382c-0.109,0.254,0.008,0.549,0.262,0.656c0.064,0.027,0.131,0.041,0.197,0.041
		C25.368,40.079,25.553,39.966,25.634,39.775z"/>
	<path fill="#243E89" d="M39.429,15.3c0-0.276-0.224-0.5-0.5-0.5H37.73c-0.276,0-0.5,0.224-0.5,0.5c0,0.276,0.224,0.5,0.5,0.5h1.199
		C39.205,15.8,39.429,15.576,39.429,15.3z"/>
	<path fill="#243E89" d="M29.904,37.07l9.482-21.569c0.111-0.253-0.003-0.548-0.256-0.659c-0.254-0.112-0.548,0.003-0.659,0.256
		l-9.482,21.57c-0.111,0.253,0.003,0.548,0.256,0.659c0.065,0.028,0.134,0.042,0.201,0.042C29.638,37.37,29.822,37.259,29.904,37.07
		z"/>
	<path fill="#243E89" d="M28.65,45.337l9.692-21.102c0.115-0.251,0.005-0.547-0.246-0.663c-0.251-0.115-0.548-0.006-0.663,0.246
		l-9.692,21.101c-0.115,0.251-0.005,0.548,0.246,0.663c0.067,0.031,0.138,0.046,0.208,0.046
		C28.384,45.628,28.565,45.52,28.65,45.337z"/>
	<path fill="#243E89" d="M40.328,20.078l3.051-7.295c0.106-0.255-0.014-0.548-0.269-0.654c-0.255-0.107-0.548,0.013-0.654,0.269
		l-3.051,7.295c-0.106,0.255,0.014,0.548,0.269,0.654c0.063,0.026,0.128,0.039,0.193,0.039
		C40.062,20.385,40.248,20.27,40.328,20.078z"/>
	<path fill="#243E89" d="M43.417,12.59c0-0.276-0.224-0.5-0.5-0.5h-6.281c-0.276,0-0.5,0.224-0.5,0.5c0,0.276,0.224,0.5,0.5,0.5
		h6.281C43.193,13.09,43.417,12.867,43.417,12.59z"/>
	<path fill="#243E89" d="M35.104,16.823l1.98-4.012c0.123-0.248,0.021-0.547-0.227-0.669c-0.246-0.121-0.547-0.02-0.669,0.227
		l-1.98,4.012c-0.123,0.248-0.021,0.547,0.227,0.669c0.071,0.035,0.146,0.052,0.221,0.052C34.839,17.102,35.017,17,35.104,16.823z"
		/>
	<path fill="#243E89" d="M28.014,46.773c-0.592,0-1.073-0.48-1.073-1.073c0-0.591,0.481-1.072,1.073-1.072
		c0.591,0,1.072,0.481,1.072,1.072C29.086,46.293,28.605,46.773,28.014,46.773z M25.772,46.773c-0.592,0-1.073-0.48-1.073-1.073
		c0-0.591,0.481-1.072,1.073-1.072c0.592,0,1.073,0.481,1.073,1.072C26.846,46.293,26.364,46.773,25.772,46.773z M23.219,43.311
		c-0.591,0-1.071-0.481-1.071-1.074c0-0.592,0.48-1.072,1.071-1.072c0.592,0,1.074,0.48,1.074,1.072
		C24.293,42.829,23.811,43.311,23.219,43.311z M29.211,38.516c-0.591,0-1.072-0.48-1.072-1.072s0.481-1.072,1.072-1.072
		c0.593,0,1.075,0.48,1.075,1.072C30.286,38.034,29.804,38.516,29.211,38.516z M21.005,31.325c-0.592,0-1.073-0.481-1.073-1.072
		c0-0.593,0.481-1.073,1.073-1.073c0.592,0,1.074,0.48,1.074,1.073C22.079,30.844,21.597,31.325,21.005,31.325z M19.339,28.146
		c-0.592,0-1.073-0.48-1.073-1.072s0.481-1.072,1.073-1.072c0.591,0,1.072,0.48,1.072,1.072S19.93,28.146,19.339,28.146z
		 M38.146,24.579c-0.591,0-1.072-0.481-1.072-1.072c0-0.592,0.481-1.074,1.072-1.074c0.592,0,1.073,0.481,1.073,1.074
		C39.22,24.098,38.738,24.579,38.146,24.579z M39.657,21.479c-0.592,0-1.073-0.481-1.073-1.074c0-0.592,0.481-1.073,1.073-1.073
		c0.592,0,1.073,0.481,1.073,1.073C40.73,20.998,40.249,21.479,39.657,21.479z M33.692,20.671c-0.592,0-1.074-0.481-1.074-1.073
		c0-0.592,0.482-1.073,1.074-1.073c0.591,0,1.072,0.481,1.072,1.073C34.764,20.19,34.284,20.671,33.692,20.671z M34.421,18.249
		c-0.592,0-1.073-0.481-1.073-1.073c0-0.592,0.481-1.073,1.073-1.073c0.592,0,1.074,0.481,1.074,1.073
		C35.495,17.768,35.013,18.249,34.421,18.249z M37.13,16.347c-0.591,0-1.072-0.481-1.072-1.073c0-0.592,0.481-1.073,1.072-1.073
		c0.592,0,1.074,0.481,1.074,1.073C38.204,15.866,37.722,16.347,37.13,16.347z M16.003,13.69c-0.591,0-1.072-0.481-1.072-1.074
		c0-0.592,0.481-1.073,1.072-1.073c0.592,0,1.074,0.481,1.074,1.073C17.077,13.209,16.595,13.69,16.003,13.69z"/>
</g>
<path fill="#6D6E71" stroke="#6D6E71" stroke-width="0.5" stroke-miterlimit="10" d="M66.486,41.794
	c0,1.449-1.219,2.174-3.658,2.174h-2.316c-2.431,0-3.646-0.716-3.646-2.149V37.84c0-1.447,1.216-2.172,3.646-2.172h2.316
	c2.438,0,3.658,0.725,3.658,2.172V41.794z M65.239,37.9c0-0.832-0.672-1.248-2.016-1.248h-2.964c-1.43,0-2.146,0.416-2.146,1.248
	v3.892c0,0.794,0.716,1.19,2.146,1.19h2.894c1.391,0,2.086-0.396,2.086-1.19V37.9z M77.27,42.057c0,1.274-0.958,1.911-2.874,1.911
	h-4.442v1.438c0,0.348-0.194,0.521-0.583,0.521c-0.379,0-0.569-0.175-0.569-0.521v-5.95c0-1.22,1.017-1.829,3.052-1.829h2.209
	c2.138,0,3.207,0.602,3.207,1.807V42.057z M76.094,39.455c0-0.586-0.613-0.879-1.841-0.879h-2.53c-1.18,0-1.77,0.301-1.77,0.902
	v3.527h4.632c1.005,0,1.508-0.313,1.508-0.939L76.094,39.455L76.094,39.455z M88.053,40.833c0,0.356-0.17,0.534-0.51,0.534h-6.805
	v0.783c0,0.57,0.589,0.855,1.77,0.855h1.271c0.324,0,0.486,0.158,0.486,0.475c0,0.324-0.162,0.486-0.486,0.486h-0.975
	c-2.146,0-3.219-0.652-3.219-1.96v-2.435c0-1.299,1.061-1.947,3.184-1.947h2.612c1.781,0,2.673,0.563,2.673,1.688v1.521H88.053z
	 M80.738,40.381h6.199v-0.943c0-0.573-0.443-0.86-1.33-0.86h-3.101c-1.18,0-1.771,0.303-1.771,0.907v0.896H80.738z M98.695,43.518
	c0,0.34-0.194,0.51-0.582,0.51c-0.396,0-0.594-0.17-0.594-0.51v-4.17c0-0.514-0.52-0.771-1.557-0.771h-2.896
	c-1.063,0-1.592,0.258-1.592,0.771v4.17c0,0.34-0.19,0.51-0.57,0.51c-0.389,0-0.582-0.17-0.582-0.51v-4.17
	c0-1.146,1.021-1.722,3.063-1.722h2.233c2.051,0,3.076,0.574,3.076,1.722V43.518L98.695,43.518z M112.716,42.052
	c0,1.277-1.032,1.916-3.1,1.916h-5.511c-0.309,0-0.463-0.168-0.463-0.504c0-0.321,0.153-0.481,0.463-0.481h5.668
	c1.129,0,1.695-0.325,1.695-0.979v-0.715c0-0.725-0.676-1.086-2.027-1.086h-2.502c-2.158,0-3.237-0.581-3.237-1.746v-0.831
	c0-1.306,0.95-1.959,2.85-1.959h1.378c0.309,0,0.463,0.17,0.463,0.51c0,0.317-0.154,0.476-0.463,0.476h-1.566
	c-0.942,0-1.413,0.351-1.413,1.053v0.626c0,0.592,0.601,0.888,1.802,0.888h2.538c2.285,0,3.427,0.646,3.427,1.94L112.716,42.052
	L112.716,42.052z M123.038,42.044c0,1.282-0.998,1.924-2.993,1.924h-2.328c-2.035,0-3.052-0.642-3.052-1.924v-2.446
	c0-1.313,1.028-1.972,3.088-1.972h2.292c1.996,0,2.993,0.653,2.993,1.96V42.044z M121.85,39.49c0-0.609-0.541-0.914-1.627-0.914
	h-2.636c-1.18,0-1.771,0.341-1.771,1.021v2.445c0,0.643,0.591,0.963,1.771,0.963h2.636c1.086,0,1.627-0.32,1.627-0.963V39.49z
	 M133.916,42.127c0,1.229-1.077,1.841-3.23,1.841h-1.994c-2.17,0-3.254-0.612-3.254-1.841V38.02c0-0.334,0.191-0.5,0.576-0.5
	c0.383,0,0.575,0.166,0.575,0.5v4.107c0,0.587,0.642,0.88,1.925,0.88h2.375c1.25,0,1.877-0.284,1.877-0.854V38.02
	c0-0.326,0.195-0.487,0.586-0.487c0.377,0,0.564,0.161,0.564,0.487V42.127L133.916,42.127z M139.083,38.576
	c-1.101,0-1.651,0.324-1.651,0.974v3.968c0,0.34-0.191,0.51-0.576,0.51c-0.383,0-0.576-0.17-0.576-0.51V39.55
	c0-1.282,0.975-1.924,2.923-1.924h0.522c0.293,0,0.438,0.158,0.438,0.476c0,0.315-0.123,0.476-0.369,0.476L139.083,38.576
	L139.083,38.576z M145.009,43.968c-2.091,0-3.136-0.625-3.136-1.877V39.49c0-1.243,0.95-1.864,2.852-1.864h4.239
	c0.364,0,0.546,0.153,0.546,0.463c0,0.324-0.182,0.487-0.546,0.487h-4.394c-1.029,0-1.545,0.293-1.545,0.879v2.589
	c0,0.642,0.59,0.963,1.771,0.963h4.168c0.333,0,0.499,0.17,0.499,0.511c0,0.301-0.167,0.45-0.499,0.45H145.009L145.009,43.968z
	 M159.866,40.833c0,0.356-0.171,0.534-0.511,0.534h-6.807v0.783c0,0.57,0.59,0.855,1.77,0.855h1.271
	c0.324,0,0.488,0.158,0.488,0.475c0,0.324-0.164,0.486-0.488,0.486h-0.975c-2.145,0-3.219-0.652-3.219-1.96v-2.435
	c0-1.299,1.063-1.947,3.184-1.947h2.613c1.781,0,2.672,0.563,2.672,1.688L159.866,40.833L159.866,40.833z M152.55,40.381h6.199
	v-0.943c0-0.573-0.44-0.86-1.33-0.86h-3.101c-1.18,0-1.77,0.303-1.77,0.907L152.55,40.381L152.55,40.381z"/>
<path fill="#F15C27" stroke="#F15A29" stroke-width="0.5" stroke-miterlimit="10" d="M24.968,12.774
	c-1.758,0-3.39,0.706-4.597,1.987c-2.214,2.352-2.272,6.085-0.131,8.501c0.636,0.717,1.401,1.267,2.275,1.636
	c0.08,0.033,0.165,0.049,0.25,0.049c0.094,0,0.188-0.02,0.275-0.06c0.168-0.079,0.294-0.225,0.349-0.401l0.909-2.935
	c0.092-0.295-0.031-0.617-0.292-0.766c-0.641-0.362-1.021-1.043-0.994-1.778c0.039-1.008,0.89-1.853,1.898-1.881
	c0.531-0.018,1.04,0.181,1.423,0.553c0.383,0.372,0.594,0.871,0.594,1.405c0,0.705-0.383,1.358-1,1.705
	c-0.258,0.146-0.38,0.462-0.29,0.754l0.911,2.943c0.055,0.177,0.183,0.323,0.35,0.401c0.166,0.077,0.357,0.081,0.524,0.011
	c0.875-0.369,1.64-0.919,2.275-1.636c2.141-2.416,2.083-6.15-0.131-8.501C28.358,13.479,26.726,12.774,24.968,12.774z
	 M24.968,13.209c1.636,0,3.156,0.657,4.28,1.85c2.062,2.189,2.115,5.666,0.123,7.915c-0.592,0.667-1.305,1.18-2.119,1.522
	c-0.055,0.023-0.116,0.021-0.171-0.004c-0.057-0.026-0.1-0.076-0.118-0.135l-0.189-0.609c1.921-0.743,3.198-2.589,3.198-4.664
	c0-1.515-0.675-2.932-1.852-3.888c-0.093-0.076-0.23-0.062-0.306,0.032c-0.076,0.094-0.062,0.23,0.032,0.306
	c1.075,0.873,1.691,2.167,1.691,3.55c0,1.884-1.154,3.563-2.892,4.248l-0.594-1.917c-0.03-0.097,0.007-0.201,0.088-0.247
	c0.754-0.423,1.222-1.222,1.222-2.084c0-0.653-0.258-1.262-0.726-1.717c-0.468-0.454-1.083-0.692-1.739-0.676
	c-1.233,0.036-2.273,1.068-2.32,2.3c-0.034,0.897,0.431,1.73,1.214,2.173c0.084,0.048,0.123,0.156,0.092,0.258l-0.909,2.935
	c-0.018,0.059-0.062,0.108-0.118,0.135c-0.055,0.026-0.116,0.028-0.171,0.004c-0.814-0.343-1.527-0.855-2.119-1.522
	c-1.993-2.249-1.94-5.726,0.123-7.915C21.812,13.866,23.332,13.209,24.968,13.209z M24.873,14.081
	c-1.282,0.026-2.524,0.545-3.443,1.464c-0.564,0.564-0.974,1.232-1.22,1.985c-0.037,0.115,0.025,0.238,0.14,0.275
	c0.022,0.007,0.045,0.011,0.067,0.011c0.092,0,0.177-0.059,0.208-0.15c0.224-0.688,0.599-1.297,1.114-1.812
	c1.033-1.033,2.513-1.512,3.957-1.281c0.118,0.02,0.23-0.063,0.249-0.18c0.019-0.119-0.062-0.23-0.181-0.25
	C25.467,14.095,25.169,14.075,24.873,14.081z M26.634,14.381c-0.084,0.004-0.163,0.057-0.194,0.142
	c-0.042,0.113,0.015,0.238,0.127,0.28c0.154,0.058,0.308,0.125,0.457,0.2c0.032,0.016,0.065,0.023,0.098,0.023
	c0.08,0,0.157-0.043,0.195-0.12c0.055-0.107,0.011-0.238-0.096-0.292c-0.163-0.082-0.331-0.155-0.5-0.219
	C26.692,14.384,26.663,14.38,26.634,14.381z M20.212,18.667c-0.119-0.005-0.223,0.085-0.229,0.206
	c-0.006,0.12,0.085,0.222,0.206,0.229l0.435,0.023c0.003,0,0.008,0.001,0.011,0.001c0.115,0,0.211-0.09,0.218-0.207
	c0.006-0.12-0.086-0.222-0.206-0.229L20.212,18.667z M20.762,19.798c-0.028-0.005-0.057-0.006-0.086,0l-0.426,0.09
	c-0.117,0.024-0.192,0.141-0.167,0.258c0.021,0.103,0.112,0.173,0.213,0.173c0.015,0,0.03-0.002,0.045-0.005l0.426-0.089
	c0.117-0.026,0.192-0.141,0.167-0.258C20.914,19.877,20.845,19.813,20.762,19.798z M21.073,20.838
	c-0.028,0.002-0.056,0.01-0.083,0.023l-0.387,0.198c-0.107,0.054-0.15,0.185-0.096,0.292c0.039,0.076,0.115,0.12,0.194,0.12
	c0.033,0,0.067-0.008,0.099-0.024l0.387-0.197c0.107-0.055,0.15-0.186,0.096-0.293C21.242,20.876,21.158,20.833,21.073,20.838z
	 M21.727,21.751c-0.056-0.003-0.113,0.015-0.158,0.056l-0.324,0.291c-0.089,0.081-0.096,0.218-0.016,0.308
	c0.043,0.047,0.103,0.072,0.162,0.072c0.052,0,0.104-0.018,0.145-0.056l0.324-0.291c0.09-0.081,0.097-0.218,0.017-0.308
	C21.837,21.779,21.783,21.754,21.727,21.751z M22.595,22.475c-0.083-0.015-0.171,0.02-0.22,0.095l-0.237,0.365
	c-0.065,0.101-0.037,0.236,0.063,0.302c0.037,0.023,0.078,0.035,0.119,0.035c0.071,0,0.141-0.035,0.183-0.099l0.237-0.365
	c0.066-0.101,0.038-0.235-0.063-0.301C22.65,22.49,22.623,22.48,22.595,22.475z"/>
</svg>
