<?xml version="1.0" encoding="utf-8"?>
<!-- Generator: Adobe Illustrator 16.0.3, SVG Export Plug-In . SVG Version: 6.00 Build 0)  -->
<!DOCTYPE svg PUBLIC "-//W3C//DTD SVG 1.1//EN" "http://www.w3.org/Graphics/SVG/1.1/DTD/svg11.dtd">
<svg version="1.1" id="Layer_1" xmlns="http://www.w3.org/2000/svg" xmlns:xlink="http://www.w3.org/1999/xlink" x="0px" y="0px"
	 width="180px" height="20px" viewBox="0 0 180 20" enable-background="new 0 0 180 20" xml:space="preserve">
<path fill="#FFFFFF" d="M21.903,19.285c-0.929,0-1.483-0.523-1.483-1.401V7.704c0-2.413,1.928-3.638,5.729-3.638h3.779
	c3.978,0,5.994,1.21,5.994,3.597v4.49c0,1.725-0.941,3.78-5.425,3.78h-7.092v1.95C23.406,18.762,22.845,19.285,21.903,19.285z
	 M140.126,16.035c-0.936,0-1.494-0.517-1.494-1.382V7.866c0-1.732,0.955-3.8,5.507-3.8h0.895c0.776,0,1.26,0.507,1.26,1.321
	c0,1.226-0.872,1.32-1.139,1.32h-1.219c-2.316,0-2.316,0.872-2.316,1.158v6.787C141.619,15.519,141.061,16.035,140.126,16.035z
	 M71.073,16.035c-0.954,0-1.523-0.517-1.523-1.382V7.521c0-0.672-1.172-0.813-2.153-0.813h-4.958c-1.011,0-2.215,0.142-2.215,0.813
	v7.132c0,0.865-0.555,1.382-1.483,1.382c-0.941,0-1.503-0.517-1.503-1.382V7.521c0-2.292,1.935-3.455,5.749-3.455h3.82
	c3.829,0,5.771,1.163,5.771,3.455v7.132C72.577,15.519,72.015,16.035,71.073,16.035z M172.178,15.934h-1.666
	c-3.99,0-6.014-1.299-6.014-3.86V7.907c0-2.548,2.003-3.841,5.953-3.841h4.469c4.198,0,5.08,1.846,5.08,3.394v2.602
	c0,0.891-0.517,1.422-1.382,1.422h-11.134v0.833c0,0.789,1.371,0.955,2.52,0.955h2.174c0.84,0,1.341,0.494,1.341,1.321
	C173.519,15.432,173.018,15.934,172.178,15.934z M160.841,15.934h-6.767c-3.896,0-5.872-1.252-5.872-3.719v-4.45
	c0-1.687,0.935-3.698,5.385-3.698h7.254c0.902,0,1.442,0.486,1.442,1.301c0,0.84-0.54,1.341-1.442,1.341h-7.518
	c-2.134,0-2.134,0.75-2.134,0.996v4.43c0,0.281,0,1.138,2.519,1.138h7.133c0.852,0,1.361,0.517,1.361,1.382
	C162.202,15.455,161.692,15.934,160.841,15.934z M129.57,15.934h-3.413c-4.032,0-6.076-1.231-6.076-3.658v-7.03
	c0-0.852,0.559-1.36,1.494-1.36c0.935,0,1.493,0.509,1.493,1.36v7.03c0,0.823,1.513,0.996,2.783,0.996h4.063
	c1.009,0,2.702-0.124,2.702-0.955V5.245c0-0.84,0.566-1.341,1.515-1.341c0.923,0,1.473,0.501,1.473,1.341v7.03
	C135.604,14.702,133.574,15.934,129.57,15.934z M111.365,15.934h-3.983c-4.734,0-5.729-2.067-5.729-3.8V7.948
	c0-1.771,1.004-3.882,5.79-3.882h3.922c4.652,0,5.629,2.1,5.629,3.861v4.206C116.994,13.866,116.018,15.934,111.365,15.934z
	 M93.526,15.934h-9.429c-0.814,0-1.3-0.513-1.3-1.371c0-0.834,0.485-1.332,1.299-1.332h9.697c2.393,0,2.393-0.877,2.393-1.165
	v-1.225c0-0.333,0-1.349-2.96-1.349h-4.281c-4.012,0-6.046-1.176-6.046-3.495V4.575c0-1.762,0.934-3.86,5.384-3.86h2.357
	c0.813,0,1.3,0.516,1.3,1.381c0,0.827-0.486,1.321-1.3,1.321h-2.683c-1.909,0-1.909,0.905-1.909,1.292V5.78
	c0,0.834,1.4,1.01,2.575,1.01h4.342c4.228,0,6.37,1.287,6.37,3.828v1.527C99.336,14.659,97.382,15.934,93.526,15.934z M46.55,15.934
	h-1.666c-3.991,0-6.015-1.299-6.015-3.86V7.907c0-2.548,2.003-3.841,5.953-3.841h4.47c4.198,0,5.08,1.846,5.08,3.394v2.602
	c0,0.891-0.517,1.422-1.382,1.422H41.856v0.833c0,0.789,1.37,0.955,2.519,0.955h2.175c0.84,0,1.341,0.494,1.341,1.321
	C47.891,15.432,47.39,15.934,46.55,15.934z M10.708,15.934H6.745C2.27,15.934,0,14.524,0,11.747V4.94
	c0-2.804,2.27-4.226,6.745-4.226h3.963c4.489,0,6.766,1.422,6.766,4.226v6.767C17.474,14.511,15.197,15.934,10.708,15.934z
	 M107.16,6.708c-2.521,0-2.521,0.934-2.521,1.24v4.186c0,0.281,0,1.138,2.521,1.138h4.51c2.276,0,2.276-0.856,2.276-1.138V7.765
	c0-0.261,0-1.057-2.276-1.057H107.16z M23.406,13.271h7.416c2.073,0,2.073-0.798,2.073-1.098v-4.47c0-0.823-1.437-0.996-2.642-0.996
	h-4.328c-1.672,0-2.52,0.349-2.52,1.037V13.271z M6.313,3.417c-3.164,0-3.164,1.227-3.164,1.63v6.656c0,0.378,0,1.527,3.164,1.527
	h4.95c3.062,0,3.062-1.149,3.062-1.527V5.047c0-0.445,0-1.63-2.94-1.63H6.313z M167.484,8.781h9.591V7.673
	c0-0.288,0-0.965-1.769-0.965h-5.303c-1.672,0-2.52,0.353-2.52,1.047V8.781z M41.856,8.781h9.59V7.673c0-0.288,0-0.965-1.768-0.965
	h-5.304c-1.671,0-2.519,0.353-2.519,1.047V8.781z"/>
</svg>
